<?xml version="1.0" encoding="utf-8" standalone="no"?>
<!DOCTYPE svg PUBLIC "-//W3C//DTD SVG 1.1//EN"
  "http://www.w3.org/Graphics/SVG/1.1/DTD/svg11.dtd">
<!-- Created with matplotlib (http://matplotlib.org/) -->
<svg height="432pt" version="1.1" viewBox="0 0 576 432" width="576pt" xmlns="http://www.w3.org/2000/svg" xmlns:xlink="http://www.w3.org/1999/xlink">
 <defs>
  <style type="text/css">
*{stroke-linecap:butt;stroke-linejoin:round;stroke-miterlimit:100000;}
  </style>
 </defs>
 <g id="figure_1">
  <g id="patch_1">
   <path d="M 0 432 
L 576 432 
L 576 0 
L 0 0 
z
" style="fill:#ffffff;"/>
  </g>
  <g id="axes_1">
   <g id="patch_2">
    <path clip-path="url(#p5660321b96)" d="M 163.996486 254.776092 
L 164.181855 255.363991 
L 164.370012 255.951004 
L 164.560951 256.537118 
L 164.754669 257.122319 
L 164.951161 257.706595 
L 165.150424 258.289932 
L 165.352451 258.872317 
L 165.55724 259.453736 
L 165.764784 260.034178 
L 165.975081 260.613628 
L 166.188124 261.192075 
L 166.403909 261.769503 
L 166.622431 262.345902 
L 166.843686 262.921257 
L 167.067668 263.495556 
L 167.294372 264.068786 
L 167.523794 264.640934 
L 167.755927 265.211987 
L 167.990767 265.781932 
L 168.228308 266.350756 
L 168.468546 266.918447 
L 168.711474 267.484992 
L 168.957088 268.050378 
L 169.205381 268.614593 
L 169.456349 269.177622 
L 169.709985 269.739455 
L 169.966283 270.300078 
L 170.225239 270.859479 
L 170.486846 271.417645 
L 170.751098 271.974563 
L 171.017989 272.530222 
L 171.287514 273.084608 
L 171.559666 273.637708 
L 171.834439 274.189512 
L 172.111827 274.740005 
L 172.391824 275.289177 
L 172.674423 275.837013 
L 172.959619 276.383503 
L 173.247403 276.928633 
L 173.537771 277.472392 
L 173.830716 278.014767 
L 174.126231 278.555747 
L 174.424309 279.095318 
L 174.724943 279.633468 
L 175.028128 280.170186 
L 175.333855 280.70546 
L 175.642119 281.239277 
L 175.952912 281.771626 
L 176.266227 282.302494 
L 176.582057 282.83187 
L 176.900396 283.359741 
L 177.221235 283.886096 
L 177.544568 284.410922 
L 177.870387 284.934209 
L 178.198686 285.455944 
L 178.529456 285.976116 
L 178.86269 286.494712 
L 179.198381 287.011721 
L 179.536522 287.527132 
L 179.877103 288.040933 
L 180.220119 288.553112 
L 180.565561 289.063658 
L 180.913422 289.572559 
L 181.263692 290.079804 
L 181.616366 290.585382 
L 181.971434 291.08928 
L 182.328889 291.591489 
L 182.688723 292.091995 
L 183.050928 292.590789 
L 183.415495 293.087859 
L 183.782416 293.583193 
L 184.151683 294.076781 
L 184.523287 294.568612 
L 184.897222 295.058674 
L 185.273477 295.546956 
L 185.652044 296.033447 
L 186.032915 296.518137 
L 186.416082 297.001015 
L 186.801535 297.482069 
L 187.189267 297.961289 
L 187.579267 298.438663 
L 187.971528 298.914183 
L 188.366041 299.387835 
L 188.762797 299.859611 
L 189.161787 300.329499 
L 189.563001 300.797488 
L 189.966431 301.263569 
L 190.372068 301.72773 
L 190.779903 302.189962 
L 191.189926 302.650254 
L 191.602129 303.108594 
L 192.016501 303.564975 
L 192.433034 304.019383 
L 192.851719 304.471811 
L 193.272545 304.922247 
L 193.695503 305.370681 
L 194.120585 305.817104 
L 194.547779 306.261505 
L 194.977078 306.703874 
L 195.40847 307.144201 
L 195.102918 307.444977 
L 194.797366 307.745753 
L 194.491814 308.046528 
L 194.186262 308.347304 
L 193.88071 308.64808 
L 193.575158 308.948856 
L 193.269606 309.249632 
L 192.964054 309.550408 
L 192.658502 309.851184 
L 192.352949 310.151959 
L 192.047397 310.452735 
L 191.741845 310.753511 
L 191.436293 311.054287 
L 191.130741 311.355063 
L 190.825189 311.655839 
L 190.519637 311.956615 
L 190.214085 312.257391 
L 189.908533 312.558166 
L 189.602981 312.858942 
L 189.297429 313.159718 
L 188.991877 313.460494 
L 188.686325 313.76127 
L 188.380773 314.062046 
L 188.075221 314.362822 
L 187.769669 314.663597 
L 187.464117 314.964373 
L 187.158565 315.265149 
L 186.853013 315.565925 
L 186.547461 315.866701 
L 186.241909 316.167477 
L 185.936356 316.468253 
L 185.630804 316.769028 
L 185.325252 317.069804 
L 185.0197 317.37058 
L 184.714148 317.671356 
L 184.408596 317.972132 
L 184.103044 318.272908 
L 183.797492 318.573684 
L 183.49194 318.87446 
L 183.186388 319.175235 
L 182.880836 319.476011 
L 182.575284 319.776787 
L 182.269732 320.077563 
L 181.96418 320.378339 
L 181.658628 320.679115 
L 181.353076 320.979891 
L 181.047524 321.280666 
L 180.741972 321.581442 
L 180.43642 321.882218 
L 180.130868 322.182994 
L 179.825315 322.48377 
L 179.519763 322.784546 
L 179.214211 323.085322 
L 178.908659 323.386097 
L 178.603107 323.686873 
L 178.297555 323.987649 
L 177.992003 324.288425 
L 177.686451 324.589201 
L 177.380899 324.889977 
L 177.075347 325.190753 
L 176.769795 325.491528 
L 176.464243 325.792304 
L 176.158691 326.09308 
L 175.853139 326.393856 
L 175.547587 326.694632 
L 175.242035 326.995408 
L 174.936483 327.296184 
L 174.630931 327.59696 
L 174.325379 327.897735 
L 174.019827 328.198511 
L 173.714274 328.499287 
L 173.408722 328.800063 
L 173.10317 329.100839 
L 172.797618 329.401615 
L 172.492066 329.702391 
L 172.186514 330.003166 
L 171.880962 330.303942 
L 171.57541 330.604718 
L 171.269858 330.905494 
L 170.964306 331.20627 
L 170.658754 331.507046 
L 170.353202 331.807822 
L 170.04765 332.108597 
L 169.742098 332.409373 
L 169.436546 332.710149 
L 169.130994 333.010925 
L 168.825442 333.311701 
L 168.51989 333.612477 
L 168.214338 333.913253 
L 167.908786 334.214029 
L 167.603234 334.514804 
L 167.297681 334.81558 
L 166.992129 335.116356 
L 166.686577 335.417132 
L 166.381025 335.717908 
L 166.075473 336.018684 
L 165.769921 336.31946 
L 165.464369 336.620235 
L 165.158817 336.921011 
L 164.853265 337.221787 
L 164.279513 336.636152 
L 163.708547 336.047801 
L 163.140378 335.456748 
L 162.57502 334.863006 
L 162.012485 334.266589 
L 161.452786 333.667509 
L 160.895936 333.06578 
L 160.341947 332.461416 
L 159.790831 331.854431 
L 159.242602 331.244837 
L 158.697271 330.63265 
L 158.154851 330.017881 
L 157.615354 329.400547 
L 157.078791 328.780659 
L 156.545176 328.158233 
L 156.01452 327.533282 
L 155.486835 326.905821 
L 154.962133 326.275863 
L 154.440425 325.643422 
L 153.921725 325.008514 
L 153.406042 324.371151 
L 152.893389 323.731349 
L 152.383777 323.089122 
L 151.877218 322.444485 
L 151.373724 321.797451 
L 150.873305 321.148036 
L 150.375972 320.496254 
L 149.881738 319.842119 
L 149.390613 319.185647 
L 148.902608 318.526852 
L 148.417734 317.86575 
L 147.936002 317.202354 
L 147.457423 316.53668 
L 146.982008 315.868743 
L 146.509767 315.198558 
L 146.040711 314.52614 
L 145.574851 313.851504 
L 145.112196 313.174665 
L 144.652759 312.495639 
L 144.196548 311.814441 
L 143.743574 311.131086 
L 143.293847 310.445589 
L 142.847378 309.757967 
L 142.404176 309.068234 
L 141.964252 308.376406 
L 141.527615 307.682498 
L 141.094275 306.986527 
L 140.664242 306.288507 
L 140.237526 305.588455 
L 139.814136 304.886387 
L 139.394082 304.182317 
L 138.977373 303.476263 
L 138.564018 302.768239 
L 138.154027 302.058262 
L 137.74741 301.346348 
L 137.344174 300.632513 
L 136.94433 299.916772 
L 136.547887 299.199143 
L 136.154852 298.479641 
L 135.765236 297.758282 
L 135.379047 297.035082 
L 134.996293 296.310059 
L 134.616983 295.583228 
L 134.241126 294.854605 
L 133.86873 294.124207 
L 133.499804 293.392051 
L 133.134356 292.658152 
L 132.772394 291.922528 
L 132.413926 291.185195 
L 132.05896 290.446169 
L 131.707505 289.705468 
L 131.359568 288.963107 
L 131.015157 288.219104 
L 130.67428 287.473475 
L 130.336944 286.726238 
L 130.003157 285.977408 
L 129.672927 285.227003 
L 129.346261 284.47504 
L 129.023166 283.721535 
L 128.70365 282.966506 
L 128.38772 282.209969 
L 128.075383 281.451942 
L 127.766645 280.692442 
L 127.461515 279.931485 
L 127.159998 279.16909 
L 126.862102 278.405272 
L 126.567834 277.64005 
L 126.277199 276.87344 
L 125.990205 276.105459 
L 125.706857 275.336126 
L 125.427163 274.565457 
L 125.151129 273.79347 
L 124.87876 273.020181 
L 124.610063 272.245609 
L 124.345044 271.469771 
L 124.08371 270.692685 
L 123.826065 269.914367 
L 123.572115 269.134836 
L 123.321867 268.354108 
L 123.075326 267.572202 
L 123.484538 267.444241 
L 123.89375 267.31628 
L 124.302961 267.188319 
L 124.712173 267.060358 
L 125.121384 266.932397 
L 125.530596 266.804435 
L 125.939808 266.676474 
L 126.349019 266.548513 
L 126.758231 266.420552 
L 127.167442 266.292591 
L 127.576654 266.16463 
L 127.985866 266.036669 
L 128.395077 265.908708 
L 128.804289 265.780747 
L 129.2135 265.652785 
L 129.622712 265.524824 
L 130.031923 265.396863 
L 130.441135 265.268902 
L 130.850347 265.140941 
L 131.259558 265.01298 
L 131.66877 264.885019 
L 132.077981 264.757058 
L 132.487193 264.629097 
L 132.896405 264.501136 
L 133.305616 264.373174 
L 133.714828 264.245213 
L 134.124039 264.117252 
L 134.533251 263.989291 
L 134.942463 263.86133 
L 135.351674 263.733369 
L 135.760886 263.605408 
L 136.170097 263.477447 
L 136.579309 263.349486 
L 136.988521 263.221525 
L 137.397732 263.093563 
L 137.806944 262.965602 
L 138.216155 262.837641 
L 138.625367 262.70968 
L 139.034579 262.581719 
L 139.44379 262.453758 
L 139.853002 262.325797 
L 140.262213 262.197836 
L 140.671425 262.069875 
L 141.080637 261.941914 
L 141.489848 261.813952 
L 141.89906 261.685991 
L 142.308271 261.55803 
L 142.717483 261.430069 
L 143.126695 261.302108 
L 143.535906 261.174147 
L 143.945118 261.046186 
L 144.354329 260.918225 
L 144.763541 260.790264 
L 145.172753 260.662302 
L 145.581964 260.534341 
L 145.991176 260.40638 
L 146.400387 260.278419 
L 146.809599 260.150458 
L 147.218811 260.022497 
L 147.628022 259.894536 
L 148.037234 259.766575 
L 148.446445 259.638614 
L 148.855657 259.510653 
L 149.264869 259.382691 
L 149.67408 259.25473 
L 150.083292 259.126769 
L 150.492503 258.998808 
L 150.901715 258.870847 
L 151.310926 258.742886 
L 151.720138 258.614925 
L 152.12935 258.486964 
L 152.538561 258.359003 
L 152.947773 258.231042 
L 153.356984 258.10308 
L 153.766196 257.975119 
L 154.175408 257.847158 
L 154.584619 257.719197 
L 154.993831 257.591236 
L 155.403042 257.463275 
L 155.812254 257.335314 
L 156.221466 257.207353 
L 156.630677 257.079392 
L 157.039889 256.95143 
L 157.4491 256.823469 
L 157.858312 256.695508 
L 158.267524 256.567547 
L 158.676735 256.439586 
L 159.085947 256.311625 
L 159.495158 256.183664 
L 159.90437 256.055703 
L 160.313582 255.927742 
L 160.722793 255.799781 
L 161.132005 255.671819 
L 161.541216 255.543858 
L 161.950428 255.415897 
L 162.35964 255.287936 
L 162.768851 255.159975 
L 163.178063 255.032014 
L 163.587274 254.904053 
z
" style="fill:#ff0000;opacity:0.2;stroke:#ff0000;stroke-linejoin:miter;"/>
   </g>
   <g id="patch_3">
    <path clip-path="url(#p5660321b96)" d="M 288 216 
L 288 216 
L 288 216 
L 288 216 
L 288 216 
L 288 216 
L 288 216 
L 288 216 
L 288 216 
L 288 216 
L 288 216 
L 288 216 
L 288 216 
L 288 216 
L 288 216 
L 288 216 
L 288 216 
L 288 216 
L 288 216 
L 288 216 
L 288 216 
L 288 216 
L 288 216 
L 288 216 
L 288 216 
L 288 216 
L 288 216 
L 288 216 
L 288 216 
L 288 216 
L 288 216 
L 288 216 
L 288 216 
L 288 216 
L 288 216 
L 288 216 
L 288 216 
L 288 216 
L 288 216 
L 288 216 
L 288 216 
L 288 216 
L 288 216 
L 288 216 
L 288 216 
L 288 216 
L 288 216 
L 288 216 
L 288 216 
L 288 216 
L 288 216 
L 288 216 
L 288 216 
L 288 216 
L 288 216 
L 288 216 
L 288 216 
L 288 216 
L 288 216 
L 288 216 
L 288 216 
L 288 216 
L 288 216 
L 288 216 
L 288 216 
L 288 216 
L 288 216 
L 288 216 
L 288 216 
L 288 216 
L 288 216 
L 288 216 
L 288 216 
L 288 216 
L 288 216 
L 288 216 
L 288 216 
L 288 216 
L 288 216 
L 288 216 
L 288 216 
L 288 216 
L 288 216 
L 288 216 
L 288 216 
L 288 216 
L 288 216 
L 288 216 
L 288 216 
L 288 216 
L 288 216 
L 288 216 
L 288 216 
L 288 216 
L 288 216 
L 288 216 
L 288 216 
L 288 216 
L 288 216 
L 288 216 
L 288 216 
L 288 216 
L 288 216 
L 288 216 
L 288 216 
L 288 216 
L 288 216 
L 288 216 
L 288 216 
L 288 216 
L 288 216 
L 288 216 
L 288 216 
L 288 216 
L 288 216 
L 288 216 
L 288 216 
L 288 216 
L 288 216 
L 288 216 
L 288 216 
L 288 216 
L 288 216 
L 288 216 
L 288 216 
L 288 216 
L 288 216 
L 288 216 
L 288 216 
L 288 216 
L 288 216 
L 288 216 
L 288 216 
L 288 216 
L 288 216 
L 288 216 
L 288 216 
L 288 216 
L 288 216 
L 288 216 
L 288 216 
L 288 216 
L 288 216 
L 288 216 
L 288 216 
L 288 216 
L 288 216 
L 288 216 
L 288 216 
L 288 216 
L 288 216 
L 288 216 
L 288 216 
L 288 216 
L 288 216 
L 288 216 
L 288 216 
L 288 216 
L 288 216 
L 288 216 
L 288 216 
L 288 216 
L 288 216 
L 288 216 
L 288 216 
L 288 216 
L 288 216 
L 288 216 
L 288 216 
L 288 216 
L 288 216 
L 288 216 
L 288 216 
L 288 216 
L 288 216 
L 288 216 
L 288 216 
L 288 216 
L 288 216 
L 288 216 
L 288 216 
L 288 216 
L 288 216 
L 288 216 
L 288 216 
L 288 216 
L 288 216 
L 288 216 
L 288 216 
L 288 216 
L 288 216 
L 288 216 
L 288 216 
L 288 216 
L 288 216 
L 288 216 
L 288 216 
L 288 216 
L 288 216 
L 288 216 
L 288 216 
L 288 216 
L 288 216 
L 288 216 
L 288 216 
L 288 216 
L 288 216 
L 288 216 
L 288 216 
L 288 216 
L 288 216 
L 288 216 
L 288 216 
L 288 216 
L 288 216 
L 288 216 
L 288 216 
L 288 216 
L 288 216 
L 288 216 
L 288 216 
L 288 216 
L 288 216 
L 288 216 
L 288 216 
L 288 216 
L 288 216 
L 288 216 
L 288 216 
L 288 216 
L 288 216 
L 288 216 
L 288 216 
L 288 216 
L 288 216 
L 288 216 
L 288 216 
L 288 216 
L 288 216 
L 288 216 
L 288 216 
L 288 216 
L 288 216 
L 288 216 
L 288 216 
L 288 216 
L 288 216 
L 288 216 
L 288 216 
L 288 216 
L 288 216 
L 288 216 
L 288 216 
L 288 216 
L 288 216 
L 288 216 
L 288 216 
L 288 216 
L 288 216 
L 288 216 
L 288 216 
L 288 216 
L 288 216 
L 288 216 
L 288 216 
L 288 216 
L 288 216 
L 288 216 
L 288 216 
L 288 216 
L 288 216 
L 288 216 
L 288 216 
L 288 216 
L 288 216 
L 288 216 
L 288 216 
L 288 216 
L 288 216 
L 288 216 
L 288 216 
L 288 216 
L 288 216 
L 288 216 
L 288 216 
L 288 216 
L 288 216 
L 288 216 
L 288 216 
L 288 216 
L 288 216 
L 288 216 
L 288 216 
L 288 216 
L 288 216 
L 288 216 
L 288 216 
L 288 216 
L 288 216 
L 288 216 
L 288 216 
L 288 216 
L 288 216 
L 288 216 
L 288 216 
L 288 216 
L 288 216 
L 288 216 
L 288 216 
L 288 216 
L 288 216 
L 288 216 
L 288 216 
L 288 216 
L 288 216 
L 288 216 
L 288 216 
L 288 216 
L 288 216 
L 288 216 
L 288 216 
L 288 216 
L 288 216 
L 288 216 
L 288 216 
L 288 216 
L 288 216 
L 288 216 
L 288 216 
L 288 216 
L 288 216 
L 288 216 
L 288 216 
L 288 216 
L 288 216 
L 288 216 
L 288 216 
L 288 216 
L 288 216 
L 288 216 
L 288 216 
L 288 216 
L 288 216 
L 288 216 
L 288 216 
L 288 216 
L 288 216 
L 288 216 
L 288 216 
L 288 216 
L 288 216 
L 288 216 
L 288 216 
L 288 216 
L 288 216 
L 288 216 
L 288 216 
L 288 216 
L 288 216 
L 288 216 
L 288 216 
L 288 216 
L 288 216 
L 288 216 
L 288 216 
L 288 216 
L 288 216 
L 288 216 
L 288 216 
L 288 216 
L 288 216 
L 288 216 
L 288 216 
L 288 216 
L 288 216 
L 288 216 
L 288 216 
L 288 216 
L 288 216 
L 288 216 
L 288 216 
L 288 216 
L 288 216 
L 288 216 
L 288 216 
L 288 216 
L 288 216 
L 288 216 
L 288 216 
L 288 216 
L 288 216 
L 288 216 
L 288 216 
L 288 216 
L 288 216 
L 288 216 
L 288 216 
L 288 216 
L 288 216 
L 288 216 
z
" style="fill:#ff0000;stroke:#000000;stroke-linejoin:miter;"/>
   </g>
   <g id="patch_4">
    <path clip-path="url(#p5660321b96)" d="M 288 216 
L 288 216 
L 288 216 
L 288 216 
L 288 216 
L 288 216 
L 288 216 
L 288 216 
L 288 216 
L 288 216 
L 288 216 
L 288 216 
L 288 216 
L 288 216 
L 288 216 
L 288 216 
L 288 216 
L 288 216 
L 288 216 
L 288 216 
L 288 216 
L 288 216 
L 288 216 
L 288 216 
L 288 216 
L 288 216 
L 288 216 
L 288 216 
L 288 216 
L 288 216 
L 288 216 
L 288 216 
L 288 216 
L 288 216 
L 288 216 
L 288 216 
L 288 216 
L 288 216 
L 288 216 
L 288 216 
L 288 216 
L 288 216 
L 288 216 
L 288 216 
L 288 216 
L 288 216 
L 288 216 
L 288 216 
L 288 216 
L 288 216 
L 288 216 
L 288 216 
L 288 216 
L 288 216 
L 288 216 
L 288 216 
L 288 216 
L 288 216 
L 288 216 
L 288 216 
L 288 216 
L 288 216 
L 288 216 
L 288 216 
L 288 216 
L 288 216 
L 288 216 
L 288 216 
L 288 216 
L 288 216 
L 288 216 
L 288 216 
L 288 216 
L 288 216 
L 288 216 
L 288 216 
L 288 216 
L 288 216 
L 288 216 
L 288 216 
L 288 216 
L 288 216 
L 288 216 
L 288 216 
L 288 216 
L 288 216 
L 288 216 
L 288 216 
L 288 216 
L 288 216 
L 288 216 
L 288 216 
L 288 216 
L 288 216 
L 288 216 
L 288 216 
L 288 216 
L 288 216 
L 288 216 
L 288 216 
L 288 216 
L 288 216 
L 288 216 
L 288 216 
L 288 216 
L 288 216 
L 288 216 
L 288 216 
L 288 216 
L 288 216 
L 288 216 
L 288 216 
L 288 216 
L 288 216 
L 288 216 
L 288 216 
L 288 216 
L 288 216 
L 288 216 
L 288 216 
L 288 216 
L 288 216 
L 288 216 
L 288 216 
L 288 216 
L 288 216 
L 288 216 
L 288 216 
L 288 216 
L 288 216 
L 288 216 
L 288 216 
L 288 216 
L 288 216 
L 288 216 
L 288 216 
L 288 216 
L 288 216 
L 288 216 
L 288 216 
L 288 216 
L 288 216 
L 288 216 
L 288 216 
L 288 216 
L 288 216 
L 288 216 
L 288 216 
L 288 216 
L 288 216 
L 288 216 
L 288 216 
L 288 216 
L 288 216 
L 288 216 
L 288 216 
L 288 216 
L 288 216 
L 288 216 
L 288 216 
L 288 216 
L 288 216 
L 288 216 
L 288 216 
L 288 216 
L 288 216 
L 288 216 
L 288 216 
L 288 216 
L 288 216 
L 288 216 
L 288 216 
L 288 216 
L 288 216 
L 288 216 
L 288 216 
L 288 216 
L 288 216 
L 288 216 
L 288 216 
L 288 216 
L 288 216 
L 288 216 
L 288 216 
L 288 216 
L 288 216 
L 288 216 
L 288 216 
L 288 216 
L 288 216 
L 288 216 
L 288 216 
L 288 216 
L 288 216 
L 288 216 
L 288 216 
L 288 216 
L 288 216 
L 288 216 
L 288 216 
L 288 216 
L 288 216 
L 288 216 
L 288 216 
L 288 216 
L 288 216 
L 288 216 
L 288 216 
L 288 216 
L 288 216 
L 288 216 
L 288 216 
L 288 216 
L 288 216 
L 288 216 
L 288 216 
L 288 216 
L 288 216 
L 288 216 
L 288 216 
L 288 216 
L 288 216 
L 288 216 
L 288 216 
L 288 216 
L 288 216 
L 288 216 
L 288 216 
L 288 216 
L 288 216 
L 288 216 
L 288 216 
L 288 216 
L 288 216 
L 288 216 
L 288 216 
L 288 216 
L 288 216 
L 288 216 
L 288 216 
L 288 216 
L 288 216 
L 288 216 
L 288 216 
L 288 216 
L 288 216 
L 288 216 
L 288 216 
L 288 216 
L 288 216 
L 288 216 
L 288 216 
L 288 216 
L 288 216 
L 288 216 
L 288 216 
L 288 216 
L 288 216 
L 288 216 
L 288 216 
L 288 216 
L 288 216 
L 288 216 
L 288 216 
L 288 216 
L 288 216 
L 288 216 
L 288 216 
L 288 216 
L 288 216 
L 288 216 
L 288 216 
L 288 216 
L 288 216 
L 288 216 
L 288 216 
L 288 216 
L 288 216 
L 288 216 
L 288 216 
L 288 216 
L 288 216 
L 288 216 
L 288 216 
L 288 216 
L 288 216 
L 288 216 
L 288 216 
L 288 216 
L 288 216 
L 288 216 
L 288 216 
L 288 216 
L 288 216 
L 288 216 
L 288 216 
L 288 216 
L 288 216 
L 288 216 
L 288 216 
L 288 216 
L 288 216 
L 288 216 
L 288 216 
L 288 216 
L 288 216 
L 288 216 
L 288 216 
L 288 216 
L 288 216 
L 288 216 
L 288 216 
L 288 216 
L 288 216 
L 288 216 
L 288 216 
L 288 216 
L 288 216 
L 288 216 
L 288 216 
L 288 216 
L 288 216 
L 288 216 
L 288 216 
L 288 216 
L 288 216 
L 288 216 
L 288 216 
L 288 216 
L 288 216 
L 288 216 
L 288 216 
L 288 216 
L 288 216 
L 288 216 
L 288 216 
L 288 216 
L 288 216 
L 288 216 
L 288 216 
L 288 216 
L 288 216 
L 288 216 
L 288 216 
L 288 216 
L 288 216 
L 288 216 
L 288 216 
L 288 216 
L 288 216 
L 288 216 
L 288 216 
L 288 216 
L 288 216 
L 288 216 
L 288 216 
L 288 216 
L 288 216 
L 288 216 
L 288 216 
L 288 216 
L 288 216 
L 288 216 
L 288 216 
L 288 216 
L 288 216 
L 288 216 
L 288 216 
L 288 216 
L 288 216 
L 288 216 
L 288 216 
L 288 216 
L 288 216 
L 288 216 
L 288 216 
L 288 216 
L 288 216 
L 288 216 
L 288 216 
L 288 216 
L 288 216 
L 288 216 
L 288 216 
L 288 216 
L 288 216 
L 288 216 
L 288 216 
L 288 216 
L 288 216 
L 288 216 
L 288 216 
L 288 216 
L 288 216 
L 288 216 
L 288 216 
L 288 216 
L 288 216 
L 288 216 
L 288 216 
z
" style="fill:#ff0000;stroke:#000000;stroke-linejoin:miter;"/>
   </g>
   <g id="line2d_1">
    <path clip-path="url(#p5660321b96)" d="M 417.364878 203.950722 
L 443.237854 201.540867 
" style="fill:none;stroke:#000000;stroke-linecap:square;stroke-width:0.75;"/>
   </g>
   <g id="line2d_2">
    <path clip-path="url(#p5660321b96)" d="M 408.99211 168.656933 
L 433.190533 159.18832 
" style="fill:none;stroke:#000000;stroke-linecap:square;stroke-width:0.75;"/>
   </g>
   <g id="line2d_3">
    <path clip-path="url(#p5660321b96)" d="M 391.188558 137.05332 
L 411.82627 121.263984 
" style="fill:none;stroke:#000000;stroke-linecap:square;stroke-width:0.75;"/>
   </g>
   <g id="line2d_4">
    <path clip-path="url(#p5660321b96)" d="M 365.341927 111.603242 
L 380.810313 90.723891 
" style="fill:none;stroke:#000000;stroke-linecap:square;stroke-width:0.75;"/>
   </g>
   <g id="line2d_5">
    <path clip-path="url(#p5660321b96)" d="M 333.466845 94.290416 
L 342.560214 69.948499 
" style="fill:none;stroke:#000000;stroke-linecap:square;stroke-width:0.75;"/>
   </g>
   <g id="line2d_6">
    <path clip-path="url(#p5660321b96)" d="M 298.047829 86.464299 
L 300.057395 60.557158 
" style="fill:none;stroke:#000000;stroke-linecap:square;stroke-width:0.75;"/>
   </g>
   <g id="line2d_7">
    <path clip-path="url(#p5660321b96)" d="M 354.883481 136.438123 
L 371.604352 116.547654 
" style="fill:none;stroke:#000000;stroke-linecap:square;stroke-width:0.75;"/>
   </g>
   <g id="line2d_8">
    <path clip-path="url(#p5660321b96)" d="M 417.364878 203.950722 
L 416.779557 198.787145 
L 415.988217 193.651105 
L 414.992123 188.550818 
L 413.792868 183.494444 
L 412.392371 178.490072 
L 410.792874 173.545708 
L 408.996934 168.669261 
L 407.007424 163.868534 
L 404.827528 159.151206 
L 402.460733 154.524824 
L 399.910826 149.996789 
L 397.181885 145.574345 
L 394.278276 141.264567 
L 391.204644 137.07435 
L 387.965907 133.010397 
L 384.567246 129.07921 
L 381.014098 125.287078 
L 377.312148 121.640066 
L 373.467316 118.144011 
L 369.485756 114.804504 
L 365.373835 111.626889 
L 361.138133 108.616248 
L 356.785426 105.777398 
L 352.322676 103.114881 
L 347.757024 100.632956 
L 343.095774 98.335594 
L 338.346382 96.226469 
L 333.516446 94.308957 
L 328.613694 92.586125 
L 323.645969 91.060728 
L 318.621218 89.735208 
L 313.547479 88.611684 
L 308.43287 87.691954 
L 303.285572 86.97749 
L 298.113821 86.469434 
L 298.113821 86.469434 
" style="fill:none;stroke:#000000;stroke-linecap:square;stroke-width:2.0;"/>
   </g>
   <g id="line2d_9">
    <path clip-path="url(#p5660321b96)" d="M 336.741224 155.162039 
L 354.883481 136.438123 
" style="fill:none;stroke:#000000;stroke-linecap:square;stroke-width:0.75;"/>
   </g>
   <g id="line2d_10"/>
   <g id="line2d_11">
    <path clip-path="url(#p5660321b96)" d="M 319.723034 174.835425 
L 336.741224 155.162039 
" style="fill:none;stroke:#000000;stroke-linecap:square;stroke-width:0.75;"/>
   </g>
   <g id="line2d_12"/>
   <g id="line2d_13">
    <path clip-path="url(#p5660321b96)" d="M 243.386773 93.974934 
L 234.464128 69.569921 
" style="fill:none;stroke:#000000;stroke-linecap:square;stroke-width:0.75;"/>
   </g>
   <g id="line2d_14">
    <path clip-path="url(#p5660321b96)" d="M 252.309418 118.379947 
L 243.386773 93.974934 
" style="fill:none;stroke:#000000;stroke-linecap:square;stroke-width:0.75;"/>
   </g>
   <g id="line2d_15"/>
   <g id="line2d_16">
    <path clip-path="url(#p5660321b96)" d="M 204.946306 116.087334 
L 188.335568 96.104801 
" style="fill:none;stroke:#000000;stroke-linecap:square;stroke-width:0.75;"/>
   </g>
   <g id="line2d_17">
    <path clip-path="url(#p5660321b96)" d="M 221.557045 136.069868 
L 204.946306 116.087334 
" style="fill:none;stroke:#000000;stroke-linecap:square;stroke-width:0.75;"/>
   </g>
   <g id="line2d_18"/>
   <g id="line2d_19">
    <path clip-path="url(#p5660321b96)" d="M 242.437509 152.746353 
L 227.250013 131.661804 
" style="fill:none;stroke:#000000;stroke-linecap:square;stroke-width:0.75;"/>
   </g>
   <g id="line2d_20">
    <path clip-path="url(#p5660321b96)" d="M 252.309418 118.379947 
L 251.335019 118.741728 
L 250.364285 119.113235 
L 249.397316 119.49443 
L 248.434206 119.885275 
L 247.475053 120.285732 
L 246.519953 120.695761 
L 245.569 121.11532 
L 244.622291 121.544367 
L 243.679919 121.982859 
L 242.741979 122.430753 
L 241.808565 122.888005 
L 240.87977 123.354567 
L 239.955687 123.830393 
L 239.036409 124.315437 
L 238.122027 124.809649 
L 237.212632 125.31298 
L 236.308317 125.825379 
L 235.40917 126.346796 
L 234.515282 126.877178 
L 233.626743 127.416473 
L 232.743641 127.964625 
L 231.866065 128.521582 
L 230.994102 129.087285 
L 230.12784 129.661681 
L 229.267365 130.244709 
L 228.412763 130.836314 
L 227.564119 131.436434 
L 226.721519 132.045011 
L 225.885047 132.661983 
L 225.054787 133.287289 
L 224.230821 133.920867 
L 223.413232 134.562652 
L 222.602101 135.212581 
L 221.79751 135.870588 
" style="fill:none;stroke:#000000;stroke-linecap:square;stroke-width:2.0;"/>
   </g>
   <g id="line2d_21">
    <path clip-path="url(#p5660321b96)" d="M 159.761714 195.133788 
L 144.049393 156.116108 
" style="fill:none;stroke:#000000;stroke-linecap:square;stroke-width:0.75;"/>
   </g>
   <g id="line2d_22">
    <path clip-path="url(#p5660321b96)" d="M 159.761714 195.133788 
L 135.466126 183.731206 
" style="fill:none;stroke:#000000;stroke-linecap:square;stroke-width:0.75;"/>
   </g>
   <g id="line2d_23">
    <path clip-path="url(#p5660321b96)" d="M 159.761714 195.133788 
L 132.1305 212.456451 
" style="fill:none;stroke:#000000;stroke-linecap:square;stroke-width:0.75;"/>
   </g>
   <g id="line2d_24">
    <path clip-path="url(#p5660321b96)" d="M 159.761714 195.133788 
L 134.157271 241.303606 
" style="fill:none;stroke:#000000;stroke-linecap:square;stroke-width:0.75;"/>
   </g>
   <g id="line2d_25">
    <path clip-path="url(#p5660321b96)" d="M 173.381206 277.17997 
L 147.148214 282.847827 
" style="fill:none;stroke:#000000;stroke-linecap:square;stroke-width:0.75;"/>
   </g>
   <g id="line2d_26">
    <path clip-path="url(#p5660321b96)" d="M 173.381206 277.17997 
L 161.916635 307.710648 
" style="fill:none;stroke:#000000;stroke-linecap:square;stroke-width:0.75;"/>
   </g>
   <g id="line2d_27">
    <path clip-path="url(#p5660321b96)" d="M 184.611819 226.694685 
L 158.764773 229.368356 
" style="fill:none;stroke:#000000;stroke-linecap:square;stroke-width:0.75;"/>
   </g>
   <g id="line2d_28">
    <path clip-path="url(#p5660321b96)" d="M 159.761714 195.133788 
L 159.559467 196.417193 
L 159.370064 197.702556 
L 159.193524 198.989749 
L 159.029865 200.278643 
L 158.879103 201.569109 
L 158.741252 202.861018 
L 158.616327 204.154241 
L 158.504341 205.448648 
L 158.405304 206.744111 
L 158.319226 208.040499 
L 158.246116 209.337683 
L 158.185982 210.635533 
L 158.138829 211.93392 
L 158.104662 213.232713 
L 158.083484 214.531783 
L 158.075298 215.831 
L 158.080104 217.130234 
L 158.097902 218.429355 
L 158.12869 219.728233 
L 158.172466 221.026738 
L 158.229223 222.32474 
L 158.298958 223.62211 
L 158.381663 224.918718 
L 158.47733 226.214434 
L 158.585948 227.509128 
L 158.707508 228.802671 
L 158.841998 230.094935 
L 158.989402 231.385788 
L 159.149708 232.675104 
L 159.322899 233.962751 
L 159.508957 235.248603 
L 159.707865 236.532529 
L 159.919601 237.814403 
L 160.144145 239.094095 
L 160.381475 240.371477 
L 160.631567 241.646423 
L 160.894395 242.918803 
L 161.169934 244.188492 
L 161.458156 245.455362 
L 161.759031 246.719287 
L 162.072531 247.98014 
L 162.398623 249.237794 
L 162.737276 250.492125 
L 163.088454 251.743007 
L 163.452124 252.990315 
L 163.828248 254.233923 
L 164.21679 255.473708 
L 164.617709 256.709546 
L 165.030967 257.941313 
L 165.456522 259.168886 
L 165.89433 260.392142 
L 166.34435 261.610959 
L 166.806534 262.825214 
L 167.280838 264.034787 
L 167.767214 265.239557 
L 168.265613 266.439403 
L 168.775985 267.634205 
L 169.29828 268.823844 
L 169.832445 270.0082 
L 170.378426 271.187155 
L 170.936169 272.360592 
L 171.505619 273.528393 
L 172.086718 274.690441 
L 172.679408 275.84662 
L 173.283631 276.996814 
" style="fill:none;stroke:#000000;stroke-linecap:square;stroke-width:2.0;"/>
   </g>
   <g id="line2d_29">
    <path clip-path="url(#p5660321b96)" d="M 210.669622 225.847695 
L 184.611819 226.694685 
" style="fill:none;stroke:#000000;stroke-linecap:square;stroke-width:0.75;"/>
   </g>
   <g id="line2d_30"/>
   <g id="line2d_31">
    <path clip-path="url(#p5660321b96)" d="M 209.928733 319.852463 
L 194.31448 340.622956 
" style="fill:none;stroke:#000000;stroke-linecap:square;stroke-width:0.75;"/>
   </g>
   <g id="line2d_32">
    <path clip-path="url(#p5660321b96)" d="M 225.542987 299.08197 
L 209.928733 319.852463 
" style="fill:none;stroke:#000000;stroke-linecap:square;stroke-width:0.75;"/>
   </g>
   <g id="line2d_33"/>
   <g id="line2d_34">
    <path clip-path="url(#p5660321b96)" d="M 241.15724 278.311478 
L 225.542987 299.08197 
" style="fill:none;stroke:#000000;stroke-linecap:square;stroke-width:0.75;"/>
   </g>
   <g id="line2d_35"/>
   <g id="line2d_36">
    <path clip-path="url(#p5660321b96)" d="M 236.047596 214.650622 
L 210.071394 213.975933 
" style="fill:none;stroke:#000000;stroke-linecap:square;stroke-width:0.75;"/>
   </g>
   <g id="line2d_37">
    <path clip-path="url(#p5660321b96)" d="M 242.437509 152.746353 
L 239.333086 155.102579 
L 236.350304 157.611017 
L 233.49662 160.265396 
L 230.779166 163.059084 
L 228.204734 165.985096 
L 225.779759 169.036119 
L 223.510303 172.204528 
L 221.402037 175.482402 
L 219.460231 178.86155 
L 217.689739 182.333524 
L 216.094986 185.889647 
L 214.679958 189.521029 
L 213.448192 193.218596 
L 212.402767 196.973104 
L 211.546295 200.77517 
L 210.880918 204.61529 
L 210.408298 208.483865 
L 210.129618 212.371227 
L 210.045572 216.267659 
L 210.156372 220.163422 
L 210.461741 224.048779 
L 210.960915 227.914018 
L 211.652646 231.749478 
L 212.535207 235.545572 
L 213.606389 239.292813 
L 214.863518 242.981834 
L 216.303449 246.603415 
L 217.922584 250.148502 
L 219.716876 253.608237 
L 221.681841 256.97397 
L 223.812566 260.23729 
L 226.103727 263.390039 
L 228.549596 266.424338 
L 231.14406 269.332603 
L 233.880634 272.107564 
L 236.752479 274.742285 
L 239.752415 277.230181 
L 240.986587 278.182822 
L 240.986587 278.182822 
" style="fill:none;stroke:#000000;stroke-linecap:square;stroke-width:2.0;"/>
   </g>
   <g id="line2d_38">
    <path clip-path="url(#p5660321b96)" d="M 260.065409 342.88623 
L 254.478491 368.263476 
" style="fill:none;stroke:#000000;stroke-linecap:square;stroke-width:0.75;"/>
   </g>
   <g id="line2d_39">
    <path clip-path="url(#p5660321b96)" d="M 265.652327 317.508984 
L 260.065409 342.88623 
" style="fill:none;stroke:#000000;stroke-linecap:square;stroke-width:0.75;"/>
   </g>
   <g id="line2d_40"/>
   <g id="line2d_41">
    <path clip-path="url(#p5660321b96)" d="M 271.239246 292.131738 
L 265.652327 317.508984 
" style="fill:none;stroke:#000000;stroke-linecap:square;stroke-width:0.75;"/>
   </g>
   <g id="line2d_42"/>
   <g id="line2d_43">
    <path clip-path="url(#p5660321b96)" d="M 310.426984 343.974557 
L 314.912381 369.569468 
" style="fill:none;stroke:#000000;stroke-linecap:square;stroke-width:0.75;"/>
   </g>
   <g id="line2d_44">
    <path clip-path="url(#p5660321b96)" d="M 305.941587 318.379645 
L 310.426984 343.974557 
" style="fill:none;stroke:#000000;stroke-linecap:square;stroke-width:0.75;"/>
   </g>
   <g id="line2d_45"/>
   <g id="line2d_46">
    <path clip-path="url(#p5660321b96)" d="M 301.45619 292.784734 
L 305.941587 318.379645 
" style="fill:none;stroke:#000000;stroke-linecap:square;stroke-width:0.75;"/>
   </g>
   <g id="line2d_47"/>
   <g id="line2d_48">
    <path clip-path="url(#p5660321b96)" d="M 372.068623 315.060201 
L 383.164135 339.497551 
" style="fill:none;stroke:#000000;stroke-linecap:square;stroke-width:0.75;"/>
   </g>
   <g id="line2d_49">
    <path clip-path="url(#p5660321b96)" d="M 372.068623 315.060201 
L 404.334866 319.798154 
" style="fill:none;stroke:#000000;stroke-linecap:square;stroke-width:0.75;"/>
   </g>
   <g id="line2d_50">
    <path clip-path="url(#p5660321b96)" d="M 357.713692 293.094056 
L 372.068623 315.060201 
" style="fill:none;stroke:#000000;stroke-linecap:square;stroke-width:0.75;"/>
   </g>
   <g id="line2d_51"/>
   <g id="line2d_52">
    <path clip-path="url(#p5660321b96)" d="M 341.634499 272.571237 
L 357.713692 293.094056 
" style="fill:none;stroke:#000000;stroke-linecap:square;stroke-width:0.75;"/>
   </g>
   <g id="line2d_53"/>
   <g id="line2d_54">
    <path clip-path="url(#p5660321b96)" d="M 307.635522 264.117765 
L 317.453283 288.176648 
" style="fill:none;stroke:#000000;stroke-linecap:square;stroke-width:0.75;"/>
   </g>
   <g id="line2d_55">
    <path clip-path="url(#p5660321b96)" d="M 271.239246 292.131738 
L 272.001388 292.295536 
L 272.765131 292.451705 
L 273.530397 292.600229 
L 274.29711 292.741092 
L 275.065193 292.874282 
L 275.83457 292.999784 
L 276.605163 293.117586 
L 277.376896 293.227677 
L 278.149691 293.330045 
L 278.923471 293.42468 
L 279.698159 293.511573 
L 280.473677 293.590714 
L 281.249947 293.662096 
L 282.026893 293.725713 
L 282.804436 293.781557 
L 283.582498 293.829622 
L 284.361002 293.869905 
L 285.13987 293.902401 
L 285.919024 293.927107 
L 286.698386 293.94402 
L 287.477879 293.953139 
L 288.257423 293.954462 
L 289.036942 293.94799 
L 289.816357 293.933724 
L 290.59559 293.911664 
L 291.374564 293.881813 
L 292.153201 293.844174 
L 292.931422 293.79875 
L 293.70915 293.745547 
L 294.486307 293.684569 
L 295.262815 293.615823 
L 296.038597 293.539315 
L 296.813576 293.455054 
L 297.587673 293.363047 
L 298.360811 293.263303 
L 299.132913 293.155834 
L 299.903902 293.040649 
L 300.6737 292.91776 
L 301.442231 292.787179 
L 302.209418 292.64892 
L 302.975184 292.502995 
L 303.739453 292.349421 
L 304.502147 292.188212 
L 305.263191 292.019383 
L 306.022509 291.842954 
L 306.780025 291.658939 
L 307.535663 291.467359 
L 308.289347 291.268233 
L 309.041002 291.061579 
L 309.790554 290.84742 
L 310.537926 290.625775 
L 311.283044 290.396669 
L 312.025835 290.160122 
L 312.766222 289.91616 
L 313.504133 289.664806 
L 314.239494 289.406086 
L 314.97223 289.140025 
L 315.70227 288.86665 
L 316.429539 288.585989 
L 317.153965 288.298069 
L 317.875476 288.002919 
L 318.594 287.700569 
L 319.309464 287.391049 
L 320.021797 287.07439 
L 320.730928 286.750624 
L 321.436786 286.419783 
L 322.1393 286.081899 
L 322.8384 285.737008 
L 323.534017 285.385143 
L 324.22608 285.02634 
L 324.914521 284.660634 
L 325.59927 284.288061 
L 326.280259 283.908661 
L 326.957421 283.522469 
L 327.630686 283.129525 
L 328.299989 282.729869 
L 328.965261 282.323539 
L 329.626437 281.910577 
L 330.283451 281.491024 
L 330.936236 281.064922 
L 331.584728 280.632314 
L 332.228861 280.193242 
L 332.868571 279.747751 
L 333.503794 279.295886 
L 334.134468 278.83769 
L 334.760527 278.373212 
L 335.381911 277.902495 
L 335.998557 277.425589 
L 336.610402 276.94254 
L 337.217387 276.453397 
L 337.81945 275.958209 
L 338.416531 275.457025 
L 339.008571 274.949895 
L 339.59551 274.43687 
L 340.177289 273.918002 
L 340.75385 273.393342 
L 341.325136 272.862943 
" style="fill:none;stroke:#000000;stroke-linecap:square;stroke-width:2.0;"/>
   </g>
   <g id="line2d_56">
    <path clip-path="url(#p5660321b96)" d="M 407.997038 265.811319 
L 431.996446 275.773583 
" style="fill:none;stroke:#000000;stroke-linecap:square;stroke-width:0.75;"/>
   </g>
   <g id="line2d_57">
    <path clip-path="url(#p5660321b96)" d="M 383.997631 255.849056 
L 407.997038 265.811319 
" style="fill:none;stroke:#000000;stroke-linecap:square;stroke-width:0.75;"/>
   </g>
   <g id="line2d_58"/>
   <g id="line2d_59">
    <path clip-path="url(#p5660321b96)" d="M 359.998223 245.886792 
L 383.997631 255.849056 
" style="fill:none;stroke:#000000;stroke-linecap:square;stroke-width:0.75;"/>
   </g>
   <g id="line2d_60"/>
   <g id="line2d_61">
    <path clip-path="url(#p5660321b96)" d="M 335.998815 235.924528 
L 359.998223 245.886792 
" style="fill:none;stroke:#000000;stroke-linecap:square;stroke-width:0.75;"/>
   </g>
   <g id="line2d_62"/>
   <g id="line2d_63">
    <path clip-path="url(#p5660321b96)" d="M 262.017398 215.649755 
L 236.034796 215.29951 
" style="fill:none;stroke:#000000;stroke-linecap:square;stroke-width:0.75;"/>
   </g>
   <g id="line2d_64">
    <path clip-path="url(#p5660321b96)" d="M 319.723034 174.835425 
L 316.766177 172.717438 
L 313.668423 170.811449 
L 310.444945 169.126793 
L 307.111532 167.671722 
L 303.68451 166.453363 
L 300.180666 165.477683 
L 296.617161 164.749462 
L 293.011449 164.272266 
L 289.381191 164.048432 
L 285.744168 164.079057 
L 282.118194 164.363991 
L 278.521029 164.901838 
L 274.970292 165.689963 
L 271.483374 166.724508 
L 268.077355 168.000403 
L 264.768917 169.511401 
L 261.574265 171.250099 
L 258.509046 173.207983 
L 255.588274 175.375462 
L 252.826254 177.74192 
L 250.236516 180.295766 
L 247.831743 183.024491 
L 245.623714 185.91473 
L 243.623244 188.952327 
L 241.840131 192.122404 
L 240.28311 195.409432 
L 238.959806 198.797314 
L 237.8767 202.269454 
L 237.039099 205.808846 
L 236.451104 209.398155 
L 236.115595 213.0198 
L 236.034216 216.656041 
L 236.207366 220.289069 
L 236.634196 223.90109 
L 237.312615 227.474411 
L 238.239301 230.99153 
L 239.409716 234.435221 
L 240.818125 237.788616 
L 242.457631 241.03529 
L 244.320204 244.159341 
L 246.39672 247.145469 
L 248.67701 249.979045 
L 251.149903 252.646192 
L 253.803288 255.133847 
L 256.624168 257.429823 
L 259.598727 259.522877 
L 262.712396 261.402755 
L 265.949923 263.060251 
L 269.295452 264.487245 
L 272.732595 265.676749 
L 276.244518 266.622937 
L 279.81402 267.321173 
L 283.423616 267.768038 
L 287.055628 267.961344 
L 290.692265 267.900143 
L 294.315715 267.584734 
L 297.908231 267.016664 
L 301.452217 266.198715 
L 304.930313 265.134892 
L 308.325485 263.830406 
L 311.621103 262.291647 
L 314.801024 260.526152 
L 317.849675 258.542567 
L 320.752121 256.350609 
L 323.494148 253.961014 
L 326.062324 251.385486 
L 328.444071 248.636639 
L 330.627723 245.727939 
L 332.602584 242.673631 
L 334.358982 239.488675 
L 335.888314 236.188672 
L 335.888314 236.188672 
" style="fill:none;stroke:#000000;stroke-linecap:square;stroke-width:2.0;"/>
   </g>
   <g id="line2d_65">
    <defs>
     <path d="M 0 3.824449 
C 1.014256 3.824449 1.987107 3.421481 2.704294 2.704294 
C 3.421481 1.987107 3.824449 1.014256 3.824449 0 
C 3.824449 -1.014256 3.421481 -1.987107 2.704294 -2.704294 
C 1.987107 -3.421481 1.014256 -3.824449 0 -3.824449 
C -1.014256 -3.824449 -1.987107 -3.421481 -2.704294 -2.704294 
C -3.421481 -1.987107 -3.824449 -1.014256 -3.824449 0 
C -3.824449 1.014256 -3.421481 1.987107 -2.704294 2.704294 
C -1.987107 3.421481 -1.014256 3.824449 0 3.824449 
z
" id="m84e1cd7902" style="stroke:#000000;stroke-width:0.25;"/>
    </defs>
    <g clip-path="url(#p5660321b96)">
     <use style="fill:#bfbf00;stroke:#000000;stroke-width:0.25;" x="194.314479939" xlink:href="#m84e1cd7902" y="340.622955733"/>
    </g>
   </g>
   <g id="line2d_66">
    <g clip-path="url(#p5660321b96)">
     <use style="fill:#bfbf00;stroke:#000000;stroke-width:0.25;" x="209.928733282" xlink:href="#m84e1cd7902" y="319.852463111"/>
    </g>
   </g>
   <g id="line2d_67">
    <g clip-path="url(#p5660321b96)">
     <use style="fill:#bfbf00;stroke:#000000;stroke-width:0.25;" x="225.542986626" xlink:href="#m84e1cd7902" y="299.081970488"/>
    </g>
   </g>
   <g id="line2d_68">
    <g clip-path="url(#p5660321b96)">
     <use style="fill:#bfbf00;stroke:#000000;stroke-width:0.25;" x="241.157239969" xlink:href="#m84e1cd7902" y="278.311477866"/>
    </g>
   </g>
   <g id="line2d_69">
    <defs>
     <path d="M 0 3.409788 
C 0.904286 3.409788 1.771657 3.050511 2.411084 2.411084 
C 3.050511 1.771657 3.409788 0.904286 3.409788 0 
C 3.409788 -0.904286 3.050511 -1.771657 2.411084 -2.411084 
C 1.771657 -3.050511 0.904286 -3.409788 0 -3.409788 
C -0.904286 -3.409788 -1.771657 -3.050511 -2.411084 -2.411084 
C -3.050511 -1.771657 -3.409788 -0.904286 -3.409788 0 
C -3.409788 0.904286 -3.050511 1.771657 -2.411084 2.411084 
C -1.771657 3.050511 -0.904286 3.409788 0 3.409788 
z
" id="m4fb73f4a02" style="stroke:#000000;stroke-width:0.25;"/>
    </defs>
    <g clip-path="url(#p5660321b96)">
     <use style="fill:#bfbf00;stroke:#000000;stroke-width:0.25;" x="144.049393195" xlink:href="#m4fb73f4a02" y="156.116107632"/>
    </g>
   </g>
   <g id="line2d_70">
    <defs>
     <path d="M 0 3.344494 
C 0.88697 3.344494 1.737732 2.992097 2.364915 2.364915 
C 2.992097 1.737732 3.344494 0.88697 3.344494 0 
C 3.344494 -0.88697 2.992097 -1.737732 2.364915 -2.364915 
C 1.737732 -2.992097 0.88697 -3.344494 0 -3.344494 
C -0.88697 -3.344494 -1.737732 -2.992097 -2.364915 -2.364915 
C -2.992097 -1.737732 -3.344494 -0.88697 -3.344494 0 
C -3.344494 0.88697 -2.992097 1.737732 -2.364915 2.364915 
C -1.737732 2.992097 -0.88697 3.344494 0 3.344494 
z
" id="mf057a44843" style="stroke:#000000;stroke-width:0.25;"/>
    </defs>
    <g clip-path="url(#p5660321b96)">
     <use style="fill:#bfbf00;stroke:#000000;stroke-width:0.25;" x="134.157270933" xlink:href="#mf057a44843" y="241.303606026"/>
    </g>
   </g>
   <g id="line2d_71">
    <defs>
     <path d="M 0 3.009774 
C 0.798201 3.009774 1.563818 2.692645 2.128231 2.128231 
C 2.692645 1.563818 3.009774 0.798201 3.009774 0 
C 3.009774 -0.798201 2.692645 -1.563818 2.128231 -2.128231 
C 1.563818 -2.692645 0.798201 -3.009774 0 -3.009774 
C -0.798201 -3.009774 -1.563818 -2.692645 -2.128231 -2.128231 
C -2.692645 -1.563818 -3.009774 -0.798201 -3.009774 0 
C -3.009774 0.798201 -2.692645 1.563818 -2.128231 2.128231 
C -1.563818 2.692645 -0.798201 3.009774 0 3.009774 
z
" id="m2e898eb603" style="stroke:#000000;stroke-width:0.25;"/>
    </defs>
    <g clip-path="url(#p5660321b96)">
     <use style="fill:#bfbf00;stroke:#000000;stroke-width:0.25;" x="132.130500007" xlink:href="#m2e898eb603" y="212.456451422"/>
    </g>
   </g>
   <g id="line2d_72">
    <defs>
     <path d="M 0 2.922688 
C 0.775106 2.922688 1.51857 2.614735 2.066653 2.066653 
C 2.614735 1.51857 2.922688 0.775106 2.922688 0 
C 2.922688 -0.775106 2.614735 -1.51857 2.066653 -2.066653 
C 1.51857 -2.614735 0.775106 -2.922688 0 -2.922688 
C -0.775106 -2.922688 -1.51857 -2.614735 -2.066653 -2.066653 
C -2.614735 -1.51857 -2.922688 -0.775106 -2.922688 0 
C -2.922688 0.775106 -2.614735 1.51857 -2.066653 2.066653 
C -1.51857 2.614735 -0.775106 2.922688 0 2.922688 
z
" id="m8813f00e9d" style="stroke:#000000;stroke-width:0.25;"/>
    </defs>
    <g clip-path="url(#p5660321b96)">
     <use style="fill:#bfbf00;stroke:#000000;stroke-width:0.25;" x="135.466126074" xlink:href="#m8813f00e9d" y="183.731205942"/>
    </g>
   </g>
   <g id="line2d_73">
    <defs>
     <path d="M 0 3.558447 
C 0.943711 3.558447 1.848897 3.183506 2.516202 2.516202 
C 3.183506 1.848897 3.558447 0.943711 3.558447 0 
C 3.558447 -0.943711 3.183506 -1.848897 2.516202 -2.516202 
C 1.848897 -3.183506 0.943711 -3.558447 0 -3.558447 
C -0.943711 -3.558447 -1.848897 -3.183506 -2.516202 -2.516202 
C -3.183506 -1.848897 -3.558447 -0.943711 -3.558447 0 
C -3.558447 0.943711 -3.183506 1.848897 -2.516202 2.516202 
C -1.848897 3.183506 -0.943711 3.558447 0 3.558447 
z
" id="m153f3d5976" style="stroke:#000000;stroke-width:0.25;"/>
    </defs>
    <g clip-path="url(#p5660321b96)">
     <use style="fill:#bfbf00;stroke:#000000;stroke-width:0.25;" x="159.76171402" xlink:href="#m153f3d5976" y="195.133788318"/>
    </g>
   </g>
   <g id="line2d_74">
    <defs>
     <path d="M 0 3.455807 
C 0.916491 3.455807 1.795568 3.091682 2.443625 2.443625 
C 3.091682 1.795568 3.455807 0.916491 3.455807 0 
C 3.455807 -0.916491 3.091682 -1.795568 2.443625 -2.443625 
C 1.795568 -3.091682 0.916491 -3.455807 0 -3.455807 
C -0.916491 -3.455807 -1.795568 -3.091682 -2.443625 -2.443625 
C -3.091682 -1.795568 -3.455807 -0.916491 -3.455807 0 
C -3.455807 0.916491 -3.091682 1.795568 -2.443625 2.443625 
C -1.795568 3.091682 -0.916491 3.455807 0 3.455807 
z
" id="ma4677cd29b" style="stroke:#000000;stroke-width:0.25;"/>
    </defs>
    <g clip-path="url(#p5660321b96)">
     <use style="fill:#bfbf00;stroke:#000000;stroke-width:0.25;" x="161.91663545" xlink:href="#ma4677cd29b" y="307.710647956"/>
    </g>
   </g>
   <g id="line2d_75">
    <defs>
     <path d="M 0 3.108146 
C 0.82429 3.108146 1.61493 2.780652 2.197791 2.197791 
C 2.780652 1.61493 3.108146 0.82429 3.108146 0 
C 3.108146 -0.82429 2.780652 -1.61493 2.197791 -2.197791 
C 1.61493 -2.780652 0.82429 -3.108146 0 -3.108146 
C -0.82429 -3.108146 -1.61493 -2.780652 -2.197791 -2.197791 
C -2.780652 -1.61493 -3.108146 -0.82429 -3.108146 0 
C -3.108146 0.82429 -2.780652 1.61493 -2.197791 2.197791 
C -1.61493 2.780652 -0.82429 3.108146 0 3.108146 
z
" id="mdc9036d8f8" style="stroke:#000000;stroke-width:0.25;"/>
    </defs>
    <g clip-path="url(#p5660321b96)">
     <use style="fill:#bfbf00;stroke:#000000;stroke-width:0.25;" x="147.148213594" xlink:href="#mdc9036d8f8" y="282.84782742"/>
    </g>
   </g>
   <g id="line2d_76">
    <defs>
     <path d="M 0 3.488364 
C 0.925125 3.488364 1.812484 3.120808 2.466646 2.466646 
C 3.120808 1.812484 3.488364 0.925125 3.488364 0 
C 3.488364 -0.925125 3.120808 -1.812484 2.466646 -2.466646 
C 1.812484 -3.120808 0.925125 -3.488364 0 -3.488364 
C -0.925125 -3.488364 -1.812484 -3.120808 -2.466646 -2.466646 
C -3.120808 -1.812484 -3.488364 -0.925125 -3.488364 0 
C -3.488364 0.925125 -3.120808 1.812484 -2.466646 2.466646 
C -1.812484 3.120808 -0.925125 3.488364 0 3.488364 
z
" id="m19c65a16ca" style="stroke:#000000;stroke-width:0.75;"/>
    </defs>
    <g clip-path="url(#p5660321b96)">
     <use style="fill:#ff0000;stroke:#000000;stroke-width:0.75;" x="173.381205701" xlink:href="#m19c65a16ca" y="277.179970371"/>
    </g>
   </g>
   <g id="line2d_77">
    <defs>
     <path d="M 0 3.652691 
C 0.968705 3.652691 1.897864 3.26782 2.582842 2.582842 
C 3.26782 1.897864 3.652691 0.968705 3.652691 0 
C 3.652691 -0.968705 3.26782 -1.897864 2.582842 -2.582842 
C 1.897864 -3.26782 0.968705 -3.652691 0 -3.652691 
C -0.968705 -3.652691 -1.897864 -3.26782 -2.582842 -2.582842 
C -3.26782 -1.897864 -3.652691 -0.968705 -3.652691 0 
C -3.652691 0.968705 -3.26782 1.897864 -2.582842 2.582842 
C -1.897864 3.26782 -0.968705 3.652691 0 3.652691 
z
" id="mfde0e3d931" style="stroke:#000000;stroke-width:0.25;"/>
    </defs>
    <g clip-path="url(#p5660321b96)">
     <use style="fill:#bfbf00;stroke:#000000;stroke-width:0.25;" x="184.611818575" xlink:href="#mfde0e3d931" y="226.694684729"/>
    </g>
   </g>
   <g id="line2d_78">
    <g clip-path="url(#p5660321b96)">
     <use style="fill:#bfbf00;stroke:#000000;stroke-width:0.25;" x="210.669622171" xlink:href="#mfde0e3d931" y="225.847695463"/>
    </g>
   </g>
   <g id="line2d_79">
    <defs>
     <path d="M 0 3.461337 
C 0.917957 3.461337 1.798441 3.096628 2.447535 2.447535 
C 3.096628 1.798441 3.461337 0.917957 3.461337 0 
C 3.461337 -0.917957 3.096628 -1.798441 2.447535 -2.447535 
C 1.798441 -3.096628 0.917957 -3.461337 0 -3.461337 
C -0.917957 -3.461337 -1.798441 -3.096628 -2.447535 -2.447535 
C -3.096628 -1.798441 -3.461337 -0.917957 -3.461337 0 
C -3.461337 0.917957 -3.096628 1.798441 -2.447535 2.447535 
C -1.798441 3.096628 -0.917957 3.461337 0 3.461337 
z
" id="m8de3872bfe" style="stroke:#000000;stroke-width:0.25;"/>
    </defs>
    <g clip-path="url(#p5660321b96)">
     <use style="fill:#bfbf00;stroke:#000000;stroke-width:0.25;" x="234.464127508" xlink:href="#m8de3872bfe" y="69.5699207087"/>
    </g>
   </g>
   <g id="line2d_80">
    <g clip-path="url(#p5660321b96)">
     <use style="fill:#bfbf00;stroke:#000000;stroke-width:0.25;" x="243.386772924" xlink:href="#m8de3872bfe" y="93.9749339239"/>
    </g>
   </g>
   <g id="line2d_81">
    <g clip-path="url(#p5660321b96)">
     <use style="fill:#bfbf00;stroke:#000000;stroke-width:0.25;" x="252.309418339" xlink:href="#m8de3872bfe" y="118.379947139"/>
    </g>
   </g>
   <g id="line2d_82">
    <defs>
     <path d="M 0 3.094175 
C 0.820585 3.094175 1.607671 2.768153 2.187912 2.187912 
C 2.768153 1.607671 3.094175 0.820585 3.094175 0 
C 3.094175 -0.820585 2.768153 -1.607671 2.187912 -2.187912 
C 1.607671 -2.768153 0.820585 -3.094175 0 -3.094175 
C -0.820585 -3.094175 -1.607671 -2.768153 -2.187912 -2.187912 
C -2.768153 -1.607671 -3.094175 -0.820585 -3.094175 0 
C -3.094175 0.820585 -2.768153 1.607671 -2.187912 2.187912 
C -1.607671 2.768153 -0.820585 3.094175 0 3.094175 
z
" id="m74510062d5" style="stroke:#000000;stroke-width:0.25;"/>
    </defs>
    <g clip-path="url(#p5660321b96)">
     <use style="fill:#bfbf00;stroke:#000000;stroke-width:0.25;" x="188.335567586" xlink:href="#m74510062d5" y="96.1048012791"/>
    </g>
   </g>
   <g id="line2d_83">
    <g clip-path="url(#p5660321b96)">
     <use style="fill:#bfbf00;stroke:#000000;stroke-width:0.25;" x="204.946306322" xlink:href="#m74510062d5" y="116.087334399"/>
    </g>
   </g>
   <g id="line2d_84">
    <g clip-path="url(#p5660321b96)">
     <use style="fill:#bfbf00;stroke:#000000;stroke-width:0.25;" x="221.557045057" xlink:href="#m74510062d5" y="136.069867519"/>
    </g>
   </g>
   <g id="line2d_85">
    <defs>
     <path d="M 0 3.498079 
C 0.927701 3.498079 1.817532 3.129499 2.473515 2.473515 
C 3.129499 1.817532 3.498079 0.927701 3.498079 0 
C 3.498079 -0.927701 3.129499 -1.817532 2.473515 -2.473515 
C 1.817532 -3.129499 0.927701 -3.498079 0 -3.498079 
C -0.927701 -3.498079 -1.817532 -3.129499 -2.473515 -2.473515 
C -3.129499 -1.817532 -3.498079 -0.927701 -3.498079 0 
C -3.498079 0.927701 -3.129499 1.817532 -2.473515 2.473515 
C -1.817532 3.129499 -0.927701 3.498079 0 3.498079 
z
" id="m659db473b2" style="stroke:#000000;stroke-width:0.25;"/>
    </defs>
    <g clip-path="url(#p5660321b96)">
     <use style="fill:#bfbf00;stroke:#000000;stroke-width:0.25;" x="242.437509435" xlink:href="#m659db473b2" y="152.746352716"/>
    </g>
   </g>
   <g id="line2d_86">
    <defs>
     <path d="M 0 3.883643 
C 1.029954 3.883643 2.017863 3.474438 2.74615 2.74615 
C 3.474438 2.017863 3.883643 1.029954 3.883643 0 
C 3.883643 -1.029954 3.474438 -2.017863 2.74615 -2.74615 
C 2.017863 -3.474438 1.029954 -3.883643 0 -3.883643 
C -1.029954 -3.883643 -2.017863 -3.474438 -2.74615 -2.74615 
C -3.474438 -2.017863 -3.883643 -1.029954 -3.883643 0 
C -3.883643 1.029954 -3.474438 2.017863 -2.74615 2.74615 
C -2.017863 3.474438 -1.029954 3.883643 0 3.883643 
z
" id="m2fb57aaa68" style="stroke:#000000;stroke-width:0.25;"/>
    </defs>
    <g clip-path="url(#p5660321b96)">
     <use style="fill:#bfbf00;stroke:#000000;stroke-width:0.25;" x="236.04759617" xlink:href="#m2fb57aaa68" y="214.650621891"/>
    </g>
   </g>
   <g id="line2d_87">
    <defs>
     <path d="M 0 3.734859 
C 0.990496 3.734859 1.940558 3.341331 2.640944 2.640944 
C 3.341331 1.940558 3.734859 0.990496 3.734859 0 
C 3.734859 -0.990496 3.341331 -1.940558 2.640944 -2.640944 
C 1.940558 -3.341331 0.990496 -3.734859 0 -3.734859 
C -0.990496 -3.734859 -1.940558 -3.341331 -2.640944 -2.640944 
C -3.341331 -1.940558 -3.734859 -0.990496 -3.734859 0 
C -3.734859 0.990496 -3.341331 1.940558 -2.640944 2.640944 
C -1.940558 3.341331 -0.990496 3.734859 0 3.734859 
z
" id="m83678efd3e" style="stroke:#000000;stroke-width:0.25;"/>
    </defs>
    <g clip-path="url(#p5660321b96)">
     <use style="fill:#bfbf00;stroke:#000000;stroke-width:0.25;" x="431.996446119" xlink:href="#m83678efd3e" y="275.773583379"/>
    </g>
   </g>
   <g id="line2d_88">
    <g clip-path="url(#p5660321b96)">
     <use style="fill:#bfbf00;stroke:#000000;stroke-width:0.25;" x="407.997038432" xlink:href="#m83678efd3e" y="265.811319482"/>
    </g>
   </g>
   <g id="line2d_89">
    <g clip-path="url(#p5660321b96)">
     <use style="fill:#bfbf00;stroke:#000000;stroke-width:0.25;" x="383.997630746" xlink:href="#m83678efd3e" y="255.849055586"/>
    </g>
   </g>
   <g id="line2d_90">
    <g clip-path="url(#p5660321b96)">
     <use style="fill:#bfbf00;stroke:#000000;stroke-width:0.25;" x="359.998223059" xlink:href="#m83678efd3e" y="245.886791689"/>
    </g>
   </g>
   <g id="line2d_91">
    <g clip-path="url(#p5660321b96)">
     <use style="fill:#bfbf00;stroke:#000000;stroke-width:0.25;" x="335.998815373" xlink:href="#m83678efd3e" y="235.924527793"/>
    </g>
   </g>
   <g id="line2d_92">
    <defs>
     <path d="M 0 3.601869 
C 0.955227 3.601869 1.871459 3.222354 2.546906 2.546906 
C 3.222354 1.871459 3.601869 0.955227 3.601869 0 
C 3.601869 -0.955227 3.222354 -1.871459 2.546906 -2.546906 
C 1.871459 -3.222354 0.955227 -3.601869 0 -3.601869 
C -0.955227 -3.601869 -1.871459 -3.222354 -2.546906 -2.546906 
C -3.222354 -1.871459 -3.601869 -0.955227 -3.601869 0 
C -3.601869 0.955227 -3.222354 1.871459 -2.546906 2.546906 
C -1.871459 3.222354 -0.955227 3.601869 0 3.601869 
z
" id="m5ebc50f55e" style="stroke:#000000;stroke-width:0.25;"/>
    </defs>
    <g clip-path="url(#p5660321b96)">
     <use style="fill:#bfbf00;stroke:#000000;stroke-width:0.25;" x="342.560214091" xlink:href="#m5ebc50f55e" y="69.9484994838"/>
    </g>
   </g>
   <g id="line2d_93">
    <g clip-path="url(#p5660321b96)">
     <use style="fill:#bfbf00;stroke:#000000;stroke-width:0.25;" x="333.466845076" xlink:href="#m5ebc50f55e" y="94.2904162365"/>
    </g>
   </g>
   <g id="line2d_94">
    <defs>
     <path d="M 0 3.565122 
C 0.945481 3.565122 1.852366 3.189478 2.520922 2.520922 
C 3.189478 1.852366 3.565122 0.945481 3.565122 0 
C 3.565122 -0.945481 3.189478 -1.852366 2.520922 -2.520922 
C 1.852366 -3.189478 0.945481 -3.565122 0 -3.565122 
C -0.945481 -3.565122 -1.852366 -3.189478 -2.520922 -2.520922 
C -3.189478 -1.852366 -3.565122 -0.945481 -3.565122 0 
C -3.565122 0.945481 -3.189478 1.852366 -2.520922 2.520922 
C -1.852366 3.189478 -0.945481 3.565122 0 3.565122 
z
" id="m935887d6a1" style="stroke:#000000;stroke-width:0.25;"/>
    </defs>
    <g clip-path="url(#p5660321b96)">
     <use style="fill:#bfbf00;stroke:#000000;stroke-width:0.25;" x="443.237853736" xlink:href="#m935887d6a1" y="201.540866821"/>
    </g>
   </g>
   <g id="line2d_95">
    <g clip-path="url(#p5660321b96)">
     <use style="fill:#bfbf00;stroke:#000000;stroke-width:0.25;" x="417.364878113" xlink:href="#m935887d6a1" y="203.950722351"/>
    </g>
   </g>
   <g id="line2d_96">
    <defs>
     <path d="M 0 3.224957 
C 0.855269 3.224957 1.675623 2.885155 2.280389 2.280389 
C 2.885155 1.675623 3.224957 0.855269 3.224957 0 
C 3.224957 -0.855269 2.885155 -1.675623 2.280389 -2.280389 
C 1.675623 -2.885155 0.855269 -3.224957 0 -3.224957 
C -0.855269 -3.224957 -1.675623 -2.885155 -2.280389 -2.280389 
C -2.885155 -1.675623 -3.224957 -0.855269 -3.224957 0 
C -3.224957 0.855269 -2.885155 1.675623 -2.280389 2.280389 
C -1.675623 2.885155 -0.855269 3.224957 0 3.224957 
z
" id="m72e216d1ff" style="stroke:#000000;stroke-width:0.25;"/>
    </defs>
    <g clip-path="url(#p5660321b96)">
     <use style="fill:#bfbf00;stroke:#000000;stroke-width:0.25;" x="300.057394939" xlink:href="#m72e216d1ff" y="60.5571584408"/>
    </g>
   </g>
   <g id="line2d_97">
    <g clip-path="url(#p5660321b96)">
     <use style="fill:#bfbf00;stroke:#000000;stroke-width:0.25;" x="298.047829116" xlink:href="#m72e216d1ff" y="86.4642987007"/>
    </g>
   </g>
   <g id="line2d_98">
    <defs>
     <path d="M 0 3.219572 
C 0.85384 3.219572 1.672825 2.880337 2.276581 2.276581 
C 2.880337 1.672825 3.219572 0.85384 3.219572 0 
C 3.219572 -0.85384 2.880337 -1.672825 2.276581 -2.276581 
C 1.672825 -2.880337 0.85384 -3.219572 0 -3.219572 
C -0.85384 -3.219572 -1.672825 -2.880337 -2.276581 -2.276581 
C -2.880337 -1.672825 -3.219572 -0.85384 -3.219572 0 
C -3.219572 0.85384 -2.880337 1.672825 -2.276581 2.276581 
C -1.672825 2.880337 -0.85384 3.219572 0 3.219572 
z
" id="m7bb680a25b" style="stroke:#000000;stroke-width:0.25;"/>
    </defs>
    <g clip-path="url(#p5660321b96)">
     <use style="fill:#bfbf00;stroke:#000000;stroke-width:0.25;" x="433.190532513" xlink:href="#m7bb680a25b" y="159.188319569"/>
    </g>
   </g>
   <g id="line2d_99">
    <g clip-path="url(#p5660321b96)">
     <use style="fill:#bfbf00;stroke:#000000;stroke-width:0.25;" x="408.992110427" xlink:href="#m7bb680a25b" y="168.656932975"/>
    </g>
   </g>
   <g id="line2d_100">
    <defs>
     <path d="M 0 3.030666 
C 0.803742 3.030666 1.574673 2.711336 2.143005 2.143005 
C 2.711336 1.574673 3.030666 0.803742 3.030666 0 
C 3.030666 -0.803742 2.711336 -1.574673 2.143005 -2.143005 
C 1.574673 -2.711336 0.803742 -3.030666 0 -3.030666 
C -0.803742 -3.030666 -1.574673 -2.711336 -2.143005 -2.143005 
C -2.711336 -1.574673 -3.030666 -0.803742 -3.030666 0 
C -3.030666 0.803742 -2.711336 1.574673 -2.143005 2.143005 
C -1.574673 2.711336 -0.803742 3.030666 0 3.030666 
z
" id="m6da36def3b" style="stroke:#000000;stroke-width:0.25;"/>
    </defs>
    <g clip-path="url(#p5660321b96)">
     <use style="fill:#bfbf00;stroke:#000000;stroke-width:0.25;" x="380.81031278" xlink:href="#m6da36def3b" y="90.7238905205"/>
    </g>
   </g>
   <g id="line2d_101">
    <g clip-path="url(#p5660321b96)">
     <use style="fill:#bfbf00;stroke:#000000;stroke-width:0.25;" x="365.341927317" xlink:href="#m6da36def3b" y="111.6032421"/>
    </g>
   </g>
   <g id="line2d_102">
    <defs>
     <path d="M 0 2.865577 
C 0.75996 2.865577 1.488896 2.563642 2.026269 2.026269 
C 2.563642 1.488896 2.865577 0.75996 2.865577 0 
C 2.865577 -0.75996 2.563642 -1.488896 2.026269 -2.026269 
C 1.488896 -2.563642 0.75996 -2.865577 0 -2.865577 
C -0.75996 -2.865577 -1.488896 -2.563642 -2.026269 -2.026269 
C -2.563642 -1.488896 -2.865577 -0.75996 -2.865577 0 
C -2.865577 0.75996 -2.563642 1.488896 -2.026269 2.026269 
C -1.488896 2.563642 -0.75996 2.865577 0 2.865577 
z
" id="md7ac7e214d" style="stroke:#000000;stroke-width:0.25;"/>
    </defs>
    <g clip-path="url(#p5660321b96)">
     <use style="fill:#bfbf00;stroke:#000000;stroke-width:0.25;" x="411.826269835" xlink:href="#md7ac7e214d" y="121.263984339"/>
    </g>
   </g>
   <g id="line2d_103">
    <g clip-path="url(#p5660321b96)">
     <use style="fill:#bfbf00;stroke:#000000;stroke-width:0.25;" x="391.188558196" xlink:href="#md7ac7e214d" y="137.053320282"/>
    </g>
   </g>
   <g id="line2d_104">
    <defs>
     <path d="M 0 3.711775 
C 0.984374 3.711775 1.928564 3.320679 2.624621 2.624621 
C 3.320679 1.928564 3.711775 0.984374 3.711775 0 
C 3.711775 -0.984374 3.320679 -1.928564 2.624621 -2.624621 
C 1.928564 -3.320679 0.984374 -3.711775 0 -3.711775 
C -0.984374 -3.711775 -1.928564 -3.320679 -2.624621 -2.624621 
C -3.320679 -1.928564 -3.711775 -0.984374 -3.711775 0 
C -3.711775 0.984374 -3.320679 1.928564 -2.624621 2.624621 
C -1.928564 3.320679 -0.984374 3.711775 0 3.711775 
z
" id="mba09535ffa" style="stroke:#000000;stroke-width:0.25;"/>
    </defs>
    <g clip-path="url(#p5660321b96)">
     <use style="fill:#bfbf00;stroke:#000000;stroke-width:0.25;" x="354.883481327" xlink:href="#mba09535ffa" y="136.438123039"/>
    </g>
   </g>
   <g id="line2d_105">
    <g clip-path="url(#p5660321b96)">
     <use style="fill:#bfbf00;stroke:#000000;stroke-width:0.25;" x="336.741224461" xlink:href="#mba09535ffa" y="155.16203916"/>
    </g>
   </g>
   <g id="line2d_106">
    <g clip-path="url(#p5660321b96)">
     <use style="fill:#bfbf00;stroke:#000000;stroke-width:0.25;" x="319.723033902" xlink:href="#mba09535ffa" y="174.835425363"/>
    </g>
   </g>
   <g id="line2d_107">
    <defs>
     <path d="M 0 3.499924 
C 0.928191 3.499924 1.81849 3.13115 2.47482 2.47482 
C 3.13115 1.81849 3.499924 0.928191 3.499924 0 
C 3.499924 -0.928191 3.13115 -1.81849 2.47482 -2.47482 
C 1.81849 -3.13115 0.928191 -3.499924 0 -3.499924 
C -0.928191 -3.499924 -1.81849 -3.13115 -2.47482 -2.47482 
C -3.13115 -1.81849 -3.499924 -0.928191 -3.499924 0 
C -3.499924 0.928191 -3.13115 1.81849 -2.47482 2.47482 
C -1.81849 3.13115 -0.928191 3.499924 0 3.499924 
z
" id="m653c5d6968" style="stroke:#000000;stroke-width:0.25;"/>
    </defs>
    <g clip-path="url(#p5660321b96)">
     <use style="fill:#bfbf00;stroke:#000000;stroke-width:0.25;" x="314.912380573" xlink:href="#m653c5d6968" y="369.569468113"/>
    </g>
   </g>
   <g id="line2d_108">
    <g clip-path="url(#p5660321b96)">
     <use style="fill:#bfbf00;stroke:#000000;stroke-width:0.25;" x="310.42698381" xlink:href="#m653c5d6968" y="343.974556761"/>
    </g>
   </g>
   <g id="line2d_109">
    <g clip-path="url(#p5660321b96)">
     <use style="fill:#bfbf00;stroke:#000000;stroke-width:0.25;" x="305.941587048" xlink:href="#m653c5d6968" y="318.379645409"/>
    </g>
   </g>
   <g id="line2d_110">
    <g clip-path="url(#p5660321b96)">
     <use style="fill:#bfbf00;stroke:#000000;stroke-width:0.25;" x="301.456190286" xlink:href="#m653c5d6968" y="292.784734057"/>
    </g>
   </g>
   <g id="line2d_111">
    <defs>
     <path d="M 0 3.299896 
C 0.875143 3.299896 1.71456 2.952198 2.333379 2.333379 
C 2.952198 1.71456 3.299896 0.875143 3.299896 0 
C 3.299896 -0.875143 2.952198 -1.71456 2.333379 -2.333379 
C 1.71456 -2.952198 0.875143 -3.299896 0 -3.299896 
C -0.875143 -3.299896 -1.71456 -2.952198 -2.333379 -2.333379 
C -2.952198 -1.71456 -3.299896 -0.875143 -3.299896 0 
C -3.299896 0.875143 -2.952198 1.71456 -2.333379 2.333379 
C -1.71456 2.952198 -0.875143 3.299896 0 3.299896 
z
" id="mc4f248c2c9" style="stroke:#000000;stroke-width:0.25;"/>
    </defs>
    <g clip-path="url(#p5660321b96)">
     <use style="fill:#bfbf00;stroke:#000000;stroke-width:0.25;" x="404.334866015" xlink:href="#mc4f248c2c9" y="319.798153712"/>
    </g>
   </g>
   <g id="line2d_112">
    <defs>
     <path d="M 0 3.294215 
C 0.873636 3.294215 1.711608 2.947116 2.329362 2.329362 
C 2.947116 1.711608 3.294215 0.873636 3.294215 0 
C 3.294215 -0.873636 2.947116 -1.711608 2.329362 -2.329362 
C 1.711608 -2.947116 0.873636 -3.294215 0 -3.294215 
C -0.873636 -3.294215 -1.711608 -2.947116 -2.329362 -2.329362 
C -2.947116 -1.711608 -3.294215 -0.873636 -3.294215 0 
C -3.294215 0.873636 -2.947116 1.711608 -2.329362 2.329362 
C -1.711608 2.947116 -0.873636 3.294215 0 3.294215 
z
" id="m7f460c140e" style="stroke:#000000;stroke-width:0.25;"/>
    </defs>
    <g clip-path="url(#p5660321b96)">
     <use style="fill:#bfbf00;stroke:#000000;stroke-width:0.25;" x="383.164134828" xlink:href="#m7f460c140e" y="339.497551422"/>
    </g>
   </g>
   <g id="line2d_113">
    <defs>
     <path d="M 0 3.345909 
C 0.887345 3.345909 1.738467 2.993363 2.365915 2.365915 
C 2.993363 1.738467 3.345909 0.887345 3.345909 0 
C 3.345909 -0.887345 2.993363 -1.738467 2.365915 -2.365915 
C 1.738467 -2.993363 0.887345 -3.345909 0 -3.345909 
C -0.887345 -3.345909 -1.738467 -2.993363 -2.365915 -2.365915 
C -2.993363 -1.738467 -3.345909 -0.887345 -3.345909 0 
C -3.345909 0.887345 -2.993363 1.738467 -2.365915 2.365915 
C -1.738467 2.993363 -0.887345 3.345909 0 3.345909 
z
" id="m955c0a30c3" style="stroke:#000000;stroke-width:0.25;"/>
    </defs>
    <g clip-path="url(#p5660321b96)">
     <use style="fill:#bfbf00;stroke:#000000;stroke-width:0.25;" x="372.068622823" xlink:href="#m955c0a30c3" y="315.060201078"/>
    </g>
   </g>
   <g id="line2d_114">
    <g clip-path="url(#p5660321b96)">
     <use style="fill:#bfbf00;stroke:#000000;stroke-width:0.25;" x="357.713691739" xlink:href="#m955c0a30c3" y="293.094056347"/>
    </g>
   </g>
   <g id="line2d_115">
    <g clip-path="url(#p5660321b96)">
     <use style="fill:#bfbf00;stroke:#000000;stroke-width:0.25;" x="341.634499468" xlink:href="#m955c0a30c3" y="272.571237463"/>
    </g>
   </g>
   <g id="line2d_116">
    <defs>
     <path d="M 0 3.113462 
C 0.8257 3.113462 1.617692 2.785408 2.20155 2.20155 
C 2.785408 1.617692 3.113462 0.8257 3.113462 0 
C 3.113462 -0.8257 2.785408 -1.617692 2.20155 -2.20155 
C 1.617692 -2.785408 0.8257 -3.113462 0 -3.113462 
C -0.8257 -3.113462 -1.617692 -2.785408 -2.20155 -2.20155 
C -2.785408 -1.617692 -3.113462 -0.8257 -3.113462 0 
C -3.113462 0.8257 -2.785408 1.617692 -2.20155 2.20155 
C -1.617692 2.785408 -0.8257 3.113462 0 3.113462 
z
" id="m4e228e9810" style="stroke:#000000;stroke-width:0.25;"/>
    </defs>
    <g clip-path="url(#p5660321b96)">
     <use style="fill:#bfbf00;stroke:#000000;stroke-width:0.25;" x="254.47849111" xlink:href="#m4e228e9810" y="368.263476272"/>
    </g>
   </g>
   <g id="line2d_117">
    <g clip-path="url(#p5660321b96)">
     <use style="fill:#bfbf00;stroke:#000000;stroke-width:0.25;" x="260.065409259" xlink:href="#m4e228e9810" y="342.886230227"/>
    </g>
   </g>
   <g id="line2d_118">
    <g clip-path="url(#p5660321b96)">
     <use style="fill:#bfbf00;stroke:#000000;stroke-width:0.25;" x="265.652327407" xlink:href="#m4e228e9810" y="317.508984181"/>
    </g>
   </g>
   <g id="line2d_119">
    <g clip-path="url(#p5660321b96)">
     <use style="fill:#bfbf00;stroke:#000000;stroke-width:0.25;" x="271.239245555" xlink:href="#m4e228e9810" y="292.131738136"/>
    </g>
   </g>
   <g id="line2d_120">
    <defs>
     <path d="M 0 3.557643 
C 0.943498 3.557643 1.848479 3.182787 2.515633 2.515633 
C 3.182787 1.848479 3.557643 0.943498 3.557643 0 
C 3.557643 -0.943498 3.182787 -1.848479 2.515633 -2.515633 
C 1.848479 -3.182787 0.943498 -3.557643 0 -3.557643 
C -0.943498 -3.557643 -1.848479 -3.182787 -2.515633 -2.515633 
C -3.182787 -1.848479 -3.557643 -0.943498 -3.557643 0 
C -3.557643 0.943498 -3.182787 1.848479 -2.515633 2.515633 
C -1.848479 3.182787 -0.943498 3.557643 0 3.557643 
z
" id="md709a92be9" style="stroke:#000000;stroke-width:0.25;"/>
    </defs>
    <g clip-path="url(#p5660321b96)">
     <use style="fill:#bfbf00;stroke:#000000;stroke-width:0.25;" x="307.63552218" xlink:href="#md709a92be9" y="264.117765469"/>
    </g>
   </g>
   <g id="line2d_121">
    <defs>
     <path d="M 0 4 
C 1.060812 4 2.078319 3.578535 2.828427 2.828427 
C 3.578535 2.078319 4 1.060812 4 0 
C 4 -1.060812 3.578535 -2.078319 2.828427 -2.828427 
C 2.078319 -3.578535 1.060812 -4 0 -4 
C -1.060812 -4 -2.078319 -3.578535 -2.828427 -2.828427 
C -3.578535 -2.078319 -4 -1.060812 -4 0 
C -4 1.060812 -3.578535 2.078319 -2.828427 2.828427 
C -2.078319 3.578535 -1.060812 4 0 4 
z
" id="m77e8b66493" style="stroke:#000000;stroke-width:0.25;"/>
    </defs>
    <g clip-path="url(#p5660321b96)">
     <use style="fill:#bfbf00;stroke:#000000;stroke-width:0.25;" x="262.017398137" xlink:href="#m77e8b66493" y="215.649754845"/>
    </g>
   </g>
   <g id="line2d_122">
    <defs>
     <path d="M 0 0.5 
C 0.132602 0.5 0.25979 0.447317 0.353553 0.353553 
C 0.447317 0.25979 0.5 0.132602 0.5 0 
C 0.5 -0.132602 0.447317 -0.25979 0.353553 -0.353553 
C 0.25979 -0.447317 0.132602 -0.5 0 -0.5 
C -0.132602 -0.5 -0.25979 -0.447317 -0.353553 -0.353553 
C -0.447317 -0.25979 -0.5 -0.132602 -0.5 0 
C -0.5 0.132602 -0.447317 0.25979 -0.353553 0.353553 
C -0.25979 0.447317 -0.132602 0.5 0 0.5 
z
" id="m22aeb23c2b" style="stroke:#000000;stroke-width:0.01;"/>
    </defs>
    <g clip-path="url(#p5660321b96)">
     <use style="fill:#bfbf00;stroke:#000000;stroke-width:0.01;" x="288.0" xlink:href="#m22aeb23c2b" y="216.0"/>
    </g>
   </g>
   <g id="matplotlib.axis_1"/>
   <g id="matplotlib.axis_2"/>
   <g id="text_1">
    <!-- a -->
    <defs>
     <path d="M 34.28125 27.484375 
Q 23.390625 27.484375 19.1875 25 
Q 14.984375 22.515625 14.984375 16.5 
Q 14.984375 11.71875 18.140625 8.90625 
Q 21.296875 6.109375 26.703125 6.109375 
Q 34.1875 6.109375 38.703125 11.40625 
Q 43.21875 16.703125 43.21875 25.484375 
L 43.21875 27.484375 
z
M 52.203125 31.203125 
L 52.203125 0 
L 43.21875 0 
L 43.21875 8.296875 
Q 40.140625 3.328125 35.546875 0.953125 
Q 30.953125 -1.421875 24.3125 -1.421875 
Q 15.921875 -1.421875 10.953125 3.296875 
Q 6 8.015625 6 15.921875 
Q 6 25.140625 12.171875 29.828125 
Q 18.359375 34.515625 30.609375 34.515625 
L 43.21875 34.515625 
L 43.21875 35.40625 
Q 43.21875 41.609375 39.140625 45 
Q 35.0625 48.390625 27.6875 48.390625 
Q 23 48.390625 18.546875 47.265625 
Q 14.109375 46.140625 10.015625 43.890625 
L 10.015625 52.203125 
Q 14.9375 54.109375 19.578125 55.046875 
Q 24.21875 56 28.609375 56 
Q 40.484375 56 46.34375 49.84375 
Q 52.203125 43.703125 52.203125 31.203125 
" id="BitstreamVeraSans-Roman-61"/>
    </defs>
    <g style="fill:#660000;" transform="translate(149.421766921 301.26724515)rotate(-120.956611012)scale(0.06 -0.06)">
     <use xlink:href="#BitstreamVeraSans-Roman-61"/>
    </g>
   </g>
   <g id="text_2">
    <!-- Cladogram -->
    <defs>
     <path d="M 52 44.1875 
Q 55.375 50.25 60.0625 53.125 
Q 64.75 56 71.09375 56 
Q 79.640625 56 84.28125 50.015625 
Q 88.921875 44.046875 88.921875 33.015625 
L 88.921875 0 
L 79.890625 0 
L 79.890625 32.71875 
Q 79.890625 40.578125 77.09375 44.375 
Q 74.3125 48.1875 68.609375 48.1875 
Q 61.625 48.1875 57.5625 43.546875 
Q 53.515625 38.921875 53.515625 30.90625 
L 53.515625 0 
L 44.484375 0 
L 44.484375 32.71875 
Q 44.484375 40.625 41.703125 44.40625 
Q 38.921875 48.1875 33.109375 48.1875 
Q 26.21875 48.1875 22.15625 43.53125 
Q 18.109375 38.875 18.109375 30.90625 
L 18.109375 0 
L 9.078125 0 
L 9.078125 54.6875 
L 18.109375 54.6875 
L 18.109375 46.1875 
Q 21.1875 51.21875 25.484375 53.609375 
Q 29.78125 56 35.6875 56 
Q 41.65625 56 45.828125 52.96875 
Q 50 49.953125 52 44.1875 
" id="BitstreamVeraSans-Roman-6d"/>
     <path d="M 30.609375 48.390625 
Q 23.390625 48.390625 19.1875 42.75 
Q 14.984375 37.109375 14.984375 27.296875 
Q 14.984375 17.484375 19.15625 11.84375 
Q 23.34375 6.203125 30.609375 6.203125 
Q 37.796875 6.203125 41.984375 11.859375 
Q 46.1875 17.53125 46.1875 27.296875 
Q 46.1875 37.015625 41.984375 42.703125 
Q 37.796875 48.390625 30.609375 48.390625 
M 30.609375 56 
Q 42.328125 56 49.015625 48.375 
Q 55.71875 40.765625 55.71875 27.296875 
Q 55.71875 13.875 49.015625 6.21875 
Q 42.328125 -1.421875 30.609375 -1.421875 
Q 18.84375 -1.421875 12.171875 6.21875 
Q 5.515625 13.875 5.515625 27.296875 
Q 5.515625 40.765625 12.171875 48.375 
Q 18.84375 56 30.609375 56 
" id="BitstreamVeraSans-Roman-6f"/>
     <path d="M 9.421875 75.984375 
L 18.40625 75.984375 
L 18.40625 0 
L 9.421875 0 
z
" id="BitstreamVeraSans-Roman-6c"/>
     <path d="M 64.40625 67.28125 
L 64.40625 56.890625 
Q 59.421875 61.53125 53.78125 63.8125 
Q 48.140625 66.109375 41.796875 66.109375 
Q 29.296875 66.109375 22.65625 58.46875 
Q 16.015625 50.828125 16.015625 36.375 
Q 16.015625 21.96875 22.65625 14.328125 
Q 29.296875 6.6875 41.796875 6.6875 
Q 48.140625 6.6875 53.78125 8.984375 
Q 59.421875 11.28125 64.40625 15.921875 
L 64.40625 5.609375 
Q 59.234375 2.09375 53.4375 0.328125 
Q 47.65625 -1.421875 41.21875 -1.421875 
Q 24.65625 -1.421875 15.125 8.703125 
Q 5.609375 18.84375 5.609375 36.375 
Q 5.609375 53.953125 15.125 64.078125 
Q 24.65625 74.21875 41.21875 74.21875 
Q 47.75 74.21875 53.53125 72.484375 
Q 59.328125 70.75 64.40625 67.28125 
" id="BitstreamVeraSans-Roman-43"/>
     <path d="M 45.40625 46.390625 
L 45.40625 75.984375 
L 54.390625 75.984375 
L 54.390625 0 
L 45.40625 0 
L 45.40625 8.203125 
Q 42.578125 3.328125 38.25 0.953125 
Q 33.9375 -1.421875 27.875 -1.421875 
Q 17.96875 -1.421875 11.734375 6.484375 
Q 5.515625 14.40625 5.515625 27.296875 
Q 5.515625 40.1875 11.734375 48.09375 
Q 17.96875 56 27.875 56 
Q 33.9375 56 38.25 53.625 
Q 42.578125 51.265625 45.40625 46.390625 
M 14.796875 27.296875 
Q 14.796875 17.390625 18.875 11.75 
Q 22.953125 6.109375 30.078125 6.109375 
Q 37.203125 6.109375 41.296875 11.75 
Q 45.40625 17.390625 45.40625 27.296875 
Q 45.40625 37.203125 41.296875 42.84375 
Q 37.203125 48.484375 30.078125 48.484375 
Q 22.953125 48.484375 18.875 42.84375 
Q 14.796875 37.203125 14.796875 27.296875 
" id="BitstreamVeraSans-Roman-64"/>
     <path d="M 45.40625 27.984375 
Q 45.40625 37.75 41.375 43.109375 
Q 37.359375 48.484375 30.078125 48.484375 
Q 22.859375 48.484375 18.828125 43.109375 
Q 14.796875 37.75 14.796875 27.984375 
Q 14.796875 18.265625 18.828125 12.890625 
Q 22.859375 7.515625 30.078125 7.515625 
Q 37.359375 7.515625 41.375 12.890625 
Q 45.40625 18.265625 45.40625 27.984375 
M 54.390625 6.78125 
Q 54.390625 -7.171875 48.1875 -13.984375 
Q 42 -20.796875 29.203125 -20.796875 
Q 24.46875 -20.796875 20.265625 -20.09375 
Q 16.0625 -19.390625 12.109375 -17.921875 
L 12.109375 -9.1875 
Q 16.0625 -11.328125 19.921875 -12.34375 
Q 23.78125 -13.375 27.78125 -13.375 
Q 36.625 -13.375 41.015625 -8.765625 
Q 45.40625 -4.15625 45.40625 5.171875 
L 45.40625 9.625 
Q 42.625 4.78125 38.28125 2.390625 
Q 33.9375 0 27.875 0 
Q 17.828125 0 11.671875 7.65625 
Q 5.515625 15.328125 5.515625 27.984375 
Q 5.515625 40.671875 11.671875 48.328125 
Q 17.828125 56 27.875 56 
Q 33.9375 56 38.28125 53.609375 
Q 42.625 51.21875 45.40625 46.390625 
L 45.40625 54.6875 
L 54.390625 54.6875 
z
" id="BitstreamVeraSans-Roman-67"/>
     <path d="M 41.109375 46.296875 
Q 39.59375 47.171875 37.8125 47.578125 
Q 36.03125 48 33.890625 48 
Q 26.265625 48 22.1875 43.046875 
Q 18.109375 38.09375 18.109375 28.8125 
L 18.109375 0 
L 9.078125 0 
L 9.078125 54.6875 
L 18.109375 54.6875 
L 18.109375 46.1875 
Q 20.953125 51.171875 25.484375 53.578125 
Q 30.03125 56 36.53125 56 
Q 37.453125 56 38.578125 55.875 
Q 39.703125 55.765625 41.0625 55.515625 
z
" id="BitstreamVeraSans-Roman-72"/>
    </defs>
    <g transform="translate(249.7209375 20.92)scale(0.14 -0.14)">
     <use xlink:href="#BitstreamVeraSans-Roman-43"/>
     <use x="69.82421875" xlink:href="#BitstreamVeraSans-Roman-6c"/>
     <use x="97.607421875" xlink:href="#BitstreamVeraSans-Roman-61"/>
     <use x="158.88671875" xlink:href="#BitstreamVeraSans-Roman-64"/>
     <use x="222.36328125" xlink:href="#BitstreamVeraSans-Roman-6f"/>
     <use x="283.544921875" xlink:href="#BitstreamVeraSans-Roman-67"/>
     <use x="347.021484375" xlink:href="#BitstreamVeraSans-Roman-72"/>
     <use x="388.134765625" xlink:href="#BitstreamVeraSans-Roman-61"/>
     <use x="449.4140625" xlink:href="#BitstreamVeraSans-Roman-6d"/>
    </g>
   </g>
   <g id="legend_1">
    <g id="patch_5">
     <path d="M 480.48 50.159063 
L 492.48 50.159063 
L 492.48 45.959063 
L 480.48 45.959063 
z
" style="fill:#ff0000;stroke:#000000;stroke-linejoin:miter;"/>
    </g>
    <g id="text_3">
     <!-- a: Ruminococcaceae -->
     <defs>
      <path id="BitstreamVeraSans-Roman-20"/>
      <path d="M 54.890625 33.015625 
L 54.890625 0 
L 45.90625 0 
L 45.90625 32.71875 
Q 45.90625 40.484375 42.875 44.328125 
Q 39.84375 48.1875 33.796875 48.1875 
Q 26.515625 48.1875 22.3125 43.546875 
Q 18.109375 38.921875 18.109375 30.90625 
L 18.109375 0 
L 9.078125 0 
L 9.078125 54.6875 
L 18.109375 54.6875 
L 18.109375 46.1875 
Q 21.34375 51.125 25.703125 53.5625 
Q 30.078125 56 35.796875 56 
Q 45.21875 56 50.046875 50.171875 
Q 54.890625 44.34375 54.890625 33.015625 
" id="BitstreamVeraSans-Roman-6e"/>
      <path d="M 44.390625 34.1875 
Q 47.5625 33.109375 50.5625 29.59375 
Q 53.5625 26.078125 56.59375 19.921875 
L 66.609375 0 
L 56 0 
L 46.6875 18.703125 
Q 43.0625 26.03125 39.671875 28.421875 
Q 36.28125 30.8125 30.421875 30.8125 
L 19.671875 30.8125 
L 19.671875 0 
L 9.8125 0 
L 9.8125 72.90625 
L 32.078125 72.90625 
Q 44.578125 72.90625 50.734375 67.671875 
Q 56.890625 62.453125 56.890625 51.90625 
Q 56.890625 45.015625 53.6875 40.46875 
Q 50.484375 35.9375 44.390625 34.1875 
M 19.671875 64.796875 
L 19.671875 38.921875 
L 32.078125 38.921875 
Q 39.203125 38.921875 42.84375 42.21875 
Q 46.484375 45.515625 46.484375 51.90625 
Q 46.484375 58.296875 42.84375 61.546875 
Q 39.203125 64.796875 32.078125 64.796875 
z
" id="BitstreamVeraSans-Roman-52"/>
      <path d="M 11.71875 12.40625 
L 22.015625 12.40625 
L 22.015625 0 
L 11.71875 0 
z
M 11.71875 51.703125 
L 22.015625 51.703125 
L 22.015625 39.3125 
L 11.71875 39.3125 
z
" id="BitstreamVeraSans-Roman-3a"/>
      <path d="M 9.421875 54.6875 
L 18.40625 54.6875 
L 18.40625 0 
L 9.421875 0 
z
M 9.421875 75.984375 
L 18.40625 75.984375 
L 18.40625 64.59375 
L 9.421875 64.59375 
z
" id="BitstreamVeraSans-Roman-69"/>
      <path d="M 56.203125 29.59375 
L 56.203125 25.203125 
L 14.890625 25.203125 
Q 15.484375 15.921875 20.484375 11.0625 
Q 25.484375 6.203125 34.421875 6.203125 
Q 39.59375 6.203125 44.453125 7.46875 
Q 49.3125 8.734375 54.109375 11.28125 
L 54.109375 2.78125 
Q 49.265625 0.734375 44.1875 -0.34375 
Q 39.109375 -1.421875 33.890625 -1.421875 
Q 20.796875 -1.421875 13.15625 6.1875 
Q 5.515625 13.8125 5.515625 26.8125 
Q 5.515625 40.234375 12.765625 48.109375 
Q 20.015625 56 32.328125 56 
Q 43.359375 56 49.78125 48.890625 
Q 56.203125 41.796875 56.203125 29.59375 
M 47.21875 32.234375 
Q 47.125 39.59375 43.09375 43.984375 
Q 39.0625 48.390625 32.421875 48.390625 
Q 24.90625 48.390625 20.390625 44.140625 
Q 15.875 39.890625 15.1875 32.171875 
z
" id="BitstreamVeraSans-Roman-65"/>
      <path d="M 8.5 21.578125 
L 8.5 54.6875 
L 17.484375 54.6875 
L 17.484375 21.921875 
Q 17.484375 14.15625 20.5 10.265625 
Q 23.53125 6.390625 29.59375 6.390625 
Q 36.859375 6.390625 41.078125 11.03125 
Q 45.3125 15.671875 45.3125 23.6875 
L 45.3125 54.6875 
L 54.296875 54.6875 
L 54.296875 0 
L 45.3125 0 
L 45.3125 8.40625 
Q 42.046875 3.421875 37.71875 1 
Q 33.40625 -1.421875 27.6875 -1.421875 
Q 18.265625 -1.421875 13.375 4.4375 
Q 8.5 10.296875 8.5 21.578125 
" id="BitstreamVeraSans-Roman-75"/>
      <path d="M 48.78125 52.59375 
L 48.78125 44.1875 
Q 44.96875 46.296875 41.140625 47.34375 
Q 37.3125 48.390625 33.40625 48.390625 
Q 24.65625 48.390625 19.8125 42.84375 
Q 14.984375 37.3125 14.984375 27.296875 
Q 14.984375 17.28125 19.8125 11.734375 
Q 24.65625 6.203125 33.40625 6.203125 
Q 37.3125 6.203125 41.140625 7.25 
Q 44.96875 8.296875 48.78125 10.40625 
L 48.78125 2.09375 
Q 45.015625 0.34375 40.984375 -0.53125 
Q 36.96875 -1.421875 32.421875 -1.421875 
Q 20.0625 -1.421875 12.78125 6.34375 
Q 5.515625 14.109375 5.515625 27.296875 
Q 5.515625 40.671875 12.859375 48.328125 
Q 20.21875 56 33.015625 56 
Q 37.15625 56 41.109375 55.140625 
Q 45.0625 54.296875 48.78125 52.59375 
" id="BitstreamVeraSans-Roman-63"/>
     </defs>
     <g transform="translate(497.28 50.1590625)scale(0.06 -0.06)">
      <use xlink:href="#BitstreamVeraSans-Roman-61"/>
      <use x="61.279296875" xlink:href="#BitstreamVeraSans-Roman-3a"/>
      <use x="94.970703125" xlink:href="#BitstreamVeraSans-Roman-20"/>
      <use x="126.7578125" xlink:href="#BitstreamVeraSans-Roman-52"/>
      <use x="196.177734375" xlink:href="#BitstreamVeraSans-Roman-75"/>
      <use x="259.556640625" xlink:href="#BitstreamVeraSans-Roman-6d"/>
      <use x="356.96875" xlink:href="#BitstreamVeraSans-Roman-69"/>
      <use x="384.751953125" xlink:href="#BitstreamVeraSans-Roman-6e"/>
      <use x="448.130859375" xlink:href="#BitstreamVeraSans-Roman-6f"/>
      <use x="509.3125" xlink:href="#BitstreamVeraSans-Roman-63"/>
      <use x="564.29296875" xlink:href="#BitstreamVeraSans-Roman-6f"/>
      <use x="625.474609375" xlink:href="#BitstreamVeraSans-Roman-63"/>
      <use x="680.455078125" xlink:href="#BitstreamVeraSans-Roman-63"/>
      <use x="735.435546875" xlink:href="#BitstreamVeraSans-Roman-61"/>
      <use x="796.71484375" xlink:href="#BitstreamVeraSans-Roman-63"/>
      <use x="851.6953125" xlink:href="#BitstreamVeraSans-Roman-65"/>
      <use x="913.21875" xlink:href="#BitstreamVeraSans-Roman-61"/>
      <use x="974.498046875" xlink:href="#BitstreamVeraSans-Roman-65"/>
     </g>
    </g>
   </g>
   <g id="legend_2">
    <g id="patch_6">
     <path d="M 124.2 59.798438 
L 144.2 59.798438 
L 144.2 52.798438 
L 124.2 52.798438 
z
" style="fill:#ff0000;stroke:#000000;stroke-linejoin:miter;"/>
    </g>
    <g id="text_4">
     <!-- B -->
     <defs>
      <path d="M 19.671875 34.8125 
L 19.671875 8.109375 
L 35.5 8.109375 
Q 43.453125 8.109375 47.28125 11.40625 
Q 51.125 14.703125 51.125 21.484375 
Q 51.125 28.328125 47.28125 31.5625 
Q 43.453125 34.8125 35.5 34.8125 
z
M 19.671875 64.796875 
L 19.671875 42.828125 
L 34.28125 42.828125 
Q 41.5 42.828125 45.03125 45.53125 
Q 48.578125 48.25 48.578125 53.8125 
Q 48.578125 59.328125 45.03125 62.0625 
Q 41.5 64.796875 34.28125 64.796875 
z
M 9.8125 72.90625 
L 35.015625 72.90625 
Q 46.296875 72.90625 52.390625 68.21875 
Q 58.5 63.53125 58.5 54.890625 
Q 58.5 48.1875 55.375 44.234375 
Q 52.25 40.28125 46.1875 39.3125 
Q 53.46875 37.75 57.5 32.78125 
Q 61.53125 27.828125 61.53125 20.40625 
Q 61.53125 10.640625 54.890625 5.3125 
Q 48.25 0 35.984375 0 
L 9.8125 0 
z
" id="BitstreamVeraSans-Roman-42"/>
     </defs>
     <g transform="translate(152.2 59.7984375)scale(0.1 -0.1)">
      <use xlink:href="#BitstreamVeraSans-Roman-42"/>
     </g>
    </g>
   </g>
  </g>
 </g>
 <defs>
  <clipPath id="p5660321b96">
   <path d="M 288 388.8 
C 333.827096 388.8 377.783402 370.592702 410.188052 338.188052 
C 442.592702 305.783402 460.8 261.827096 460.8 216 
C 460.8 170.172904 442.592702 126.216598 410.188052 93.811948 
C 377.783402 61.407298 333.827096 43.2 288 43.2 
C 242.172904 43.2 198.216598 61.407298 165.811948 93.811948 
C 133.407298 126.216598 115.2 170.172904 115.2 216 
C 115.2 261.827096 133.407298 305.783402 165.811948 338.188052 
C 198.216598 370.592702 242.172904 388.8 288 388.8 
z
"/>
  </clipPath>
 </defs>
</svg>
